<?xml version="1.0" encoding="utf-8"?>
<!-- Generator: Adobe Illustrator 17.0.0, SVG Export Plug-In . SVG Version: 6.00 Build 0)  -->
<!DOCTYPE svg PUBLIC "-//W3C//DTD SVG 1.1//EN" "http://www.w3.org/Graphics/SVG/1.1/DTD/svg11.dtd">
<svg version="1.1" id="Layer_1" xmlns="http://www.w3.org/2000/svg" xmlns:xlink="http://www.w3.org/1999/xlink" x="0px" y="0px"
	 width="4722.7px" height="782px" viewBox="0 0 4722.7 782" enable-background="new 0 0 4722.7 782" xml:space="preserve">
<g>
	<path d="M3833.6,545.4c-2-0.5-3.9-0.9-6.9-1.6c1.8,2.4,2.8,3.8,4.1,5.6c-2.3,1.9-4.5,3.8-6.8,5.7c-6.5,5.3-13,10.6-19.6,15.8
		c-1.4,1.1-3.2,1.6-4.6,2.6c-1.3,1-3.5,2.7-3.3,3.4c0.5,1.6,2.2,3,3.7,4.2c0.8,0.6,2,0.6,4.3,1.2c-1.8,0.6-2.3,0.9-2.8,0.9
		c-1.8-0.1-3.6-0.3-5.4-0.4c0.5,1.7,1.1,3.5,1.8,5.9c-2.7,2.8-9.5,5.1-3.5,11.2c-3.5,5.1-7.8,5.8-12.5,2.3c-1.1-0.8-2.8-1.1-4.2-0.9
		c-2.8,0.3-5.3,1.1-7.9-1.3c-0.6-0.6-3.3,0.3-4.6,1.2c-3.4,2.2-5.7,1.5-7.8-1.8c-2.1-3.1-3.3-6.2-3.7-10.2c-0.3-3.4-2.7-6.5-4-9.8
		c-0.4-1-1.1-2.2-1-3.3c0.4-5.8-2.7-10.4-4.7-15.5c-1.8-4.7-3.1-9.6-4.6-14.4c-0.9-3-1.3-6.5-3.1-8.8c-6.9-8.9-9.9-19.3-12.9-29.8
		c-1.3-4.8-3.8-9.2-5.1-14c-3.5-12.6-6.6-25.2-10-37.8c-1.2-4.4-3-8.6-4.1-13c-1.2-4.9-1.8-9.9-2.8-14.9c-1.5-7.2-3.3-14.4-4.8-21.7
		c-2.3-11.4-6.6-22.3-6-34.4c0.2-4.1-2.8-8.4-4.2-12.7c-0.9-2.8-1.5-5.7-2.2-8.6c-2.4-10.3-5.2-20.4-7.2-30.8
		c-1.7-9.2-2.5-18.6-3.6-28c-0.1-0.6,0-1.5-0.4-1.9c-5.2-5-4.2-12-5.5-18.1c-1.6-7.2-3-14.5-3.5-21.9c-0.7-10.2-4.3-19.5-6.5-29.3
		c-1.8-8-4.5-16-3.3-24.8c0.6-5-2.4-10.5-3.7-15.8c-0.4-1.6-0.8-3.2-0.8-4.9c0.1-9.6,0.2-19.3,0.5-28.9c0.1-2,0.9-4,1.2-6.1
		c0.3-2.5,0-5.2,0.7-7.6c2-6.9,2.2-14.7,8.9-19.7c1.7-1.3,1.5-4.8,2.9-6.8c4.9-7.1,10.2-14,15.3-21.1c1.5-2.1,2.4-4.6,4-6.5
		c4.4-5.2,9.3-10.1,13.6-15.4c3.2-3.9,5.7-8.3,8.6-12.5c4.5-6.6,9-13.2,13.8-19.6c1.4-1.8,3.9-2.8,5.9-4.2c0.8-0.6,1.8-1.4,2.2-2.3
		c2.3-4.7,4.1-9.7,6.7-14.2c2.1-3.7,4.6-7.5,7.9-10c2-1.5,5.9-0.6,8.9-0.3c3.8,0.4,7.7,0.8,11.2,2.2c5.5,2.2,12.2,1.7,16.2,7.2
		c0.9,1.2,1.9,2.4,3.1,3.1c5.9,3.1,9.6,7.8,11.9,13.9c0.3,0.8,1.3,1.6,2.1,1.9c5.2,1.8,7,6.3,8.7,10.9c1.5,4,2.4,8.3,4.5,11.9
		c2.6,4.5,6.4,8.2,9.1,12.6c2.8,4.5,4.8,9.3,7.2,14c0.1,0.3,0,0.8,0.1,1c7.1,7.6,7.6,18.4,13,26.8c1.7,2.7,2.8,5.9,3.6,8.9
		c4.2,15.3,8.6,30.5,12.2,45.9c1.8,7.3,2.1,15,3.2,22.5c0.9,5.7,2.3,11.3,2.9,17c1.8,15.9,2,31.9,0.2,47.8c-0.2,1.6-1.3,3.2-1.2,4.8
		c0.1,1.6,0.8,3.6,2,4.5c0.9,0.7,2.9,0,4.3,0.2c1.6,0.2,3.3,0.7,4.8,1.3c5.3,2.2,10.6,4.4,15.9,6.8c3.7,1.7,7.4,3.3,11.1,5.2
		c9.3,4.8,12.8,14.1,17.1,22.6c2.3,4.6,5.3,9,6.3,13.9c1.8,8.6,1.4,17.6,3.6,26.1c1.3,5.1,2.4,10,3.1,15.2c2,14.4,4.5,28.9,1.5,43.4
		c-0.3,1.6-1.7,3-1.7,4.5c0,2.5,0.2,4.9,0,7.4c-0.9,7.3-1.9,14.6-2.9,21.9c-0.1,0.8-0.4,1.8-0.9,2.1c-6.2,4-8.9,10.2-10.9,16.9
		c-0.5,1.8-1.7,3.6-2.8,5.2c-3.4,4.8-7.1,9.3-10.4,14.2c-5.2,7.5-9.9,15.4-15.3,22.8c-5.1,7-10.9,13.5-16.4,20.2
		c-4.7,5.8-9.4,11.6-14.3,17.2C3846.7,531.6,3840,538.5,3833.6,545.4z M3774.1,335.6c-2.7-4.8-5.2-9.1-7.5-13.6
		c-0.8-1.6-1-3.5-1.1-5.3c-0.9-10.2,4.2-18.6,10.2-25.5c6.6-7.7,15.5-13.4,23.3-20.1c1.5-1.2,3.1-2.4,4.3-3.8
		c6.3-7.3,9.1-16.5,12.6-25.2c2.1-5.3,4.1-11.1,4-16.6c-0.2-13.5-1.6-27.1-2.6-40.6c-0.4-5.6-0.7-11.2-1.9-16.6
		c-1.6-7.4-4.5-14.6-6.2-22c-5.5-24.1-19.3-44.6-28.9-66.9c-3.9-9-10.7-16.8-16.5-24.9c-0.9-1.2-4.4-2.2-5-1.6
		c-4.1,4.2-9.3,8.2-11.3,13.4c-4,10.4-12.3,17.3-18.4,26.1c-6.7,9.7-14.2,18.9-21.4,28.3c-2.8,3.7-5.7,7.5-8.1,11.4
		c-1.9,3.1-3.3,6.4-4.6,9.8c-1.2,3-1.9,6.2-2.8,9.3c0.8,2.7,1.1,5.7,1.2,8.6c0.1,2-0.6,4.1-0.1,5.9c1.5,6,3.3,11.8,5.1,17.7
		c2.5,8.5,5.3,17,7.4,25.6c1.8,7.4,2.9,15.1,4.1,22.7c0.5,3.3,1.8,7.2,0.7,10c-1.5,3.9-3.3,6.8,1.1,9.6c0.6,0.4,0.9,1.4,1.1,2.2
		c2.4,8.7,4.9,17.4,6.9,26.2c1.6,7.1,2,14.4,3.7,21.4c1.7,7,3.3,13.9,3.3,21.3c-0.1,8.4,4,16.6,2.4,25.3c-0.2,1,0.4,2.3,0.8,3.3
		c1.7,4.8,4.1,9.5,5.1,14.4c3.9,17.6,7.3,35.4,11,53c1.1,5.3,3.1,10.5,4.2,15.8c0.8,3.6,0.4,7.6,1.3,11.2c2.5,9.8,5.3,19.4,8.1,29.1
		c1.4,4.9,2.9,9.8,4.6,14.6c2.5,7,5.2,13.9,7.9,20.8c2.5,6.6,5.2,13.1,7.9,20c7.4-7.1,14.3-13.6,20.9-20.3c3.4-3.4,6-7.5,9.4-10.9
		c3-3.1,6.8-5.6,9.7-8.8c8.3-9.5,16.4-19.3,24.6-29c0.7-0.9,1.5-1.7,2.2-2.7c3-4.5,5.9-9.1,9.1-13.4c4.8-6.6,10-12.9,14.8-19.5
		c3.3-4.5,6.4-9.2,9.4-14c2.7-4.3,6.8-8.6,7.3-13.2c1-9.2,0.3-18.6-0.3-27.9c-0.4-6.2-1.8-12.4-2.9-18.6
		c-1.8-10.1-3.4-20.2-5.8-30.1c-2.9-12-10.7-19.2-23.3-18.4c-6.8,0.4-13.6,3.1-20.1,5.6c-2.9,1.1-5.1,4.3-7.6,6.6
		c-4.8,4.1-1.4,14.5-11.3,14.8c-1,0-1.8,1.8-2.8,2.7c-1.5,1.5-2.7,3.3-4.5,4.3c-6.6,3.8-13.2,3.1-20,0c-2.5-1.1-5.5-1.1-8.3-1.3
		C3778,335.4,3775.4,335.6,3774.1,335.6z"/>
	<path d="M3278.5,340.4c-0.5,7.1-1.8,14.3-1.3,21.3c0.5,7.2,3.1,14.3,4.3,21.5c0.9,5.2,1.1,10.6,1.6,15.9c0.1,0.8-0.1,1.8,0.3,2.4
		c5.4,7.4,4.9,16.4,6.9,24.8c1.6,6.6,3.8,13,5.7,19.4c0.1,0.3,0.3,0.6,0.3,0.9c-0.5,11.6,6.8,21.3,7.7,32.6c0.1,1.6-0.5,3.2-0.6,3.7
		c2.4,5.2,4.9,9.7,6.5,14.5c2.1,6.2,3.9,12.6,5.3,19c1.6,7,2.6,14.2,4,21.3c0.4,2.1,1.3,4.1,1.8,6.2c0.4,1.6,1.1,3.5,0.7,4.9
		c-2.2,7.2,0.8,14,1,21c0.1,4.9,1.2,9.4-4.5,12.9c-2.7,1.6-5.9,5.7-4.6,10.8c1.2,4.7,0.3,9.3-4.2,12.6c-6,4.4-5.8,4.3-11.8-0.5
		c-1.4-1.1-3.8-1.1-6.6-1.7c-0.5-0.7-1.5-2.3-3.2-4.8c-1.2,2.5-1.9,4-2.8,5.9c-1.6,0.3-3.7,0.8-5.7,1.2c-2.1-2.2-4-4.2-6-6.3
		c-3.9-4.1-2.9-9.3-3.1-14.1c-0.4-11.9,0.2-23.8-1-35.6c-0.8-8.1-3.9-16-5.7-24.1c-1.6-6.7-2.8-13.4-4.3-20.1c-0.9-4-2-8-3.1-12
		c-1.6-5.9-3.1-11.8-4.8-17.7c-1.1-3.9-2.4-7.8-3.5-11.7c-3-10.9-6.2-21.7-8.9-32.6c-2.4-9.9-4.2-20-6.2-30
		c-1.3-6.8-2.8-13.5-3.8-20.3c-0.5-3.4,0.1-6.9,0.2-10.4c0.1-4.2,0.3-8.4,0.1-12.5c-0.3-4.7-1.5-9.3-1.5-14c0-11,0.1-22.1,0.7-33.1
		c0.4-8.2,1.6-16.5,2.3-24.7c0.5-5.8,0.5-11.8,1.6-17.5c1.2-6.2,3.6-12.2,4.9-18.4c1.1-5.1,1.1-10.4,2-15.5c1.2-6.7,2.8-13.4,4.5-20
		c1.1-4.5,2.6-8.8,4-13.2c1.9-6.1,3.7-12.1,5.7-18.1c2.4-7.2,4.5-14.5,7.8-21.3c5.7-11.7,12-23.2,18.6-34.4c1.3-2.2,5.2-3.5,8.1-4.1
		c4.8-0.9,9.8-1.2,14.7-1.1c7.2,0.2,14.5,0.6,21.6,1.7c7.2,1.1,14.3,4.8,21.4,4.6c9.1-0.2,15.4,5.1,22.2,8.9
		c9,4.9,16.6,12.4,25.1,18.2c5.9,4,9.5,9.4,12.4,15.7c0.7,1.6,3.5,2.2,5.3,3.3c0.3,0.2,0.8,0.2,0.9,0.3c0.8,4.1,5.3,4.5,7.1,7.1
		c8.8,12.4,17.3,25,25.5,37.8c4.7,7.3,8.9,15,13.1,22.6c1.2,2.1,1.7,4.6,2.8,6.7c1.9,3.6,4.6,6.9,5.9,10.7
		c2.8,7.9,4.9,15.9,7.3,23.9c0.3,0.9,0.1,2.2,0.7,2.8c6.8,6.2,6.4,14.5,6.8,22.7c0.4,7.9,1.5,15.8,2.2,23.6c0.9,9,1.8,18,2.5,27
		c0.8,10.2,1.5,20.4,2.1,30.6c0.5,8.9,0.6,17.9,1.1,26.9c0.1,2.4,0.9,4.8,1.5,7.2c0.3,1.4,1.2,2.9,1.2,4.3
		c-0.3,11.9-0.7,23.8-1.2,35.7c-0.2,5.6-0.4,11.2-0.8,16.9c-0.1,1.6-0.7,3.2-1.3,4.7c-1.3,3.1-2.3,5.6-0.4,9.3
		c1.4,2.6,0,6.7-0.3,10.1c-0.6,7.9-0.3,16-5.9,22.6c-0.6,0.7-1.1,2-0.9,2.8c1.6,5,0.7,9.3-1.7,14c-2.7,5.5-3.7,11.7-5.5,18
		c-1.7-0.6-2.8-1-4-1.4c-0.3,0.1-0.7,0.2-0.8,0.5c-3.9,5.8-4.5,5.9-11.3,3.2c-1.3-0.5-2.9-0.3-4.3-0.1c-5.6,0.9-12.1-4.8-11.9-10.4
		c0-1-0.5-2-0.7-3c-0.4-2-0.8-3.9-1.1-5.9c-0.4-3.6-0.9-7.3-1.1-10.9c-0.1-3.1-0.3-6.3,0.4-9.3c1.7-7.8,4.3-15.5,5.8-23.4
		c1.1-5.7,3.5-11.2,1.9-17.6c-1.1-4.2,0-8.9,0.1-13.4c0-1,0-2.5,0.6-2.9c7.2-4.2,1.2-10,1.9-15c0.5-3.7,0-7.5,0.4-11.2
		c0.4-3.2,0.8-6-0.3-9.4c-1.4-4.4-0.3-9.5-0.4-14.3c-0.3-10.9-0.4-21.9-1-32.8c-0.4-7.2-1.8-14.4-2.6-21.5
		c-0.6-5.5-0.8-11.1-1.7-16.7c-1.6-10.1-3.5-20.1-5.2-30.2c-0.9-5.4-1.8-10.8-2.2-16.2c-0.3-3.9-3.7-6.4-7.6-5.7
		c-21.4,4-41.1,12.6-60.7,21.6c-14.8,6.8-29.4,14.2-44.3,20.7c-5.3,2.4-11.4,3.2-17.1,4.5c-1.3,0.3-3.3-0.2-4.2-1.1
		c-5.1-5.7-11.3-2.9-17.1-2.4C3283.3,339.5,3281.3,339.9,3278.5,340.4z M3278.3,298.1c3.7-1.4,6.1-2.3,8.5-3.1
		c1.4-0.5,3-0.5,4.3-1.1c15.6-6.7,31.2-13.5,46.7-20.4c9.9-4.4,19.5-9.5,29.6-13.4c12.6-4.8,25.5-8.7,38.2-13.2
		c1.1-0.4,2.6-3.2,2.2-4.2c-1.2-3-3.2-5.6-4.9-8.4c-9.5-15.9-21.8-29.5-35.3-42c-15.2-14.1-32.8-22.8-53.1-24.2
		c-2,2.4-3.4,4.4-5.2,6.1c-2.7,2.5-5.3,4.8-4.3,9.2c0.4,1.6,0,3.6-0.7,5c-1.9,3.7-5.1,6.9-6.2,10.8c-3.8,12.5-7,25.3-10.5,38
		c-0.5,1.9-1.3,3.7-2,5.8c0.5,1.2,2.1,3.6,1.5,4.3c-4,5.4-3.1,11.6-3.9,17.6C3281.6,276,3279.9,287.1,3278.3,298.1z"/>
	<path d="M4340.2,546.2c-5.2,2.1-10.4,4.1-15.5,6.4c-4.5,2-9,4.2-13.5,6.3c-0.5,0.3-1.2,1-1.2,1.5c0.2,5.2-2.9,5.1-6.8,5
		c-2.2-0.1-4.9,0.4-6.6,1.6c-5.1,3.6-11,3.5-16.7,4.1c-1.7,0.2-3.5-1.3-5.3-2.1c-0.9-0.4-1.6-1.5-2.4-1.5
		c-7.1-0.2-14.3-0.4-21.4-0.3c-7.3,0.1-14.6,3-21.8-0.5c-0.4-0.2-1.1-0.5-1.4-0.4c-6.4,2.5-12.3-0.5-18.3-1.6
		c-4.1-0.7-7.7-1.6-12.4-0.4c-6.4,1.6-12.6-2.3-17.8-6.7c-2.7-2.3-5.8-4.3-8.1-7c-3.2-3.8-6.1-7.9-8.4-12.3
		c-8.4-16.2-17-32.4-24.6-49c-5.2-11.2-9.4-23-13.2-34.8c-4-12.3-7.1-24.8-10.1-37.4c-0.9-3.7,0.3-7.9,0.6-11.8c0.1-1,0.1-2-0.1-2.9
		c-1.1-4.2-2.7-8.4-3.5-12.7c-1.2-6.9-2-13.9-2.9-20.9c-1.3-10.6-2.7-21.2-3.8-31.8c-0.2-2,0.3-4.1,0.5-6.2c0.1-1.6,0.5-3.3,0.2-4.9
		c-2.2-12-4.4-23.9-7-35.8c-2-9.1-3.4-18.3-7.6-27.1c-4-8.4-6.4-17.7-8.1-26.8c-2-10.5-2.8-21.3-3.3-32c-0.2-4.1,1.8-8.3,2.7-12.5
		c0.1-0.6,0.2-1.3,0-1.9c-2.2-7,1.9-12.6,3.9-18.8c2.8-8.5,9.7-13.6,15.5-19.4c3.4-3.3,8.5-4.9,13.1-7c3.7-1.7,7.6-2.9,11.4-4.3
		c11.5-4.3,23.7-4.8,35.7-5.4c8-0.4,16.4,1.1,24.1-0.5c15.2-3.2,30.4-0.7,45.6-1.3c10.4-0.4,20.8,0.1,31.1-0.4
		c14.2-0.7,28.4-2,42.5-3c11.9-0.9,23.8-2,35.7-2.8c3.3-0.2,5.7,1.1,8.1,3.8c2.4,2.6,6.2,4.6,9.7,5.4c5.8,1.4,10.7,2.8,13.6,8.9
		c1.2,2.5,4.6,3.9,7.2,5.6c2.4,1.7,4.9,3.2,8.1,5.2c-3.3,1.3-6.5,1.7-7.7,3.4c-1.1,1.6,0,4.6,1.2,7.1c-0.7,1.3-1.4,2.5-2.3,4.1
		c1,1.1,2.2,2.1,2.8,3.3c0.5,1.1,0.4,2.6,0.6,3.9c-1.4,0.1-3.3,0.8-4.1,0.2c-4.1-3.2-7.3-2.8-10.4,1.4c-2,2.7-7.4,2.9-5.2,8.5
		c-7.2-0.4-13.2-1.6-17.4-7.5c-0.9-1.2-3.5-1.8-5.3-1.7c-12.1,0.8-24.2,2-36.3,2.7c-15.6,0.9-31.2,1.4-46.8,2.2
		c-6.7,0.4-13.4,1.6-20.1,1.6c-7.7,0.1-15.5-0.8-23.2-1.1c-7.9-0.3-15.9-0.6-23.8-0.5c-8.6,0.1-17.1,0.6-25.7,1.3
		c-5.7,0.4-11.3,1.3-16.9,2.2c-1,0.2-2.1,1.2-2.6,2.2c-2.2,4.6-6.6,6.2-10.8,7.6c-6.9,2.2-9.2,7.9-10.1,13.9
		c-0.7,4.9,0.1,10.2,0.6,15.2c0.2,1.9,1.7,3.7,2.7,5.5c0.4,0.7,1.2,1.4,1.2,2c-0.4,13.2,5.6,25,8.3,37.5c0.9,4,2.6,7.8,3.6,11.8
		c0.5,2,0.1,4.2,0.3,6.2c0.1,1.2,0.3,2.4,0.6,3.6c0.6,2.1,2.2,4.2,2,6.2c-0.7,10.3,2.9,20,3.6,30.2c0.6,8.9,2.6,17.7,4.4,26.5
		c0.2,1.1,3.4,2.8,4.1,2.3c7.2-4.3,15.2-4.4,23.1-5.5c23.2-3.1,46.3-6,69.7-5.7c15.4,0.2,30.7-0.3,46.1-0.5
		c7.6-0.1,15.2-0.4,22.7-0.2c3.1,0.1,6.1,1.5,9.3,1.8c2.9,0.3,5.9-0.3,8.8,0.1c1.4,0.2,2.7,1.7,3.9,2.8c1.8,1.5,3.3,3.6,5.3,4.5
		c3.1,1.4,6.8,1.6,9.9,3.1c1.4,0.7,2.6,3.1,2.8,4.8c0.6,4,0.5,8.1,0.8,12.1c0.3,3.7,0.7,7.5,1.2,11.8c-6.2,0.5-11.5,0.9-16.7,1.4
		c-2,7.8-3.1,8.3-12.6,7.9c-11.2-0.4-22.5-0.6-33.8-0.6c-17.6,0-35.2,0.2-52.7,0.4c-4.3,0.1-8.6,0.6-12.9,0.8
		c-2.3,0.1-4.5-0.1-6.8,0c-1.1,0-2.8-0.2-3.4,0.4c-6.8,7-15.9,3-23.6,5c-7.2,1.9-13.9-0.6-20.9-0.3c-2.3,0.1-4.6-1.8-7-2.4
		c-1.5-0.4-3.3-0.1-6.5-0.1c3,12.1,5.7,23.3,8.6,34.5c1.4,5.5,3.1,11,4.9,16.4c1,3,2.4,5.8,3.7,8.6c6.2,13.4,12.4,26.9,18.6,40.3
		c1.5,3.3,3.5,6.5,4.2,10c1.7,8.8,8.6,10.6,15.4,11.4c16.3,1.8,32.6,2.8,49,3.8c6.8,0.4,13.7,0,20.6,0.1c10.6,0.2,21.1,0.2,31.6,1
		c4,0.3,7.9,2.2,11.7,3.7c0.9,0.4,2,2.3,1.8,3.3c-1.6,7.6-1,9.1,6,12.1c0.7,0.3,1.5,0.6,2.2,0.9
		C4340,545.5,4340.1,545.9,4340.2,546.2z"/>
	<path d="M1279.6,672c-1.2,1.7-2.7,3.8-4.3,6c1.5,3,2.9,6,4.7,9.7c-5.2-2-7.6,0.6-8.8,5.3c-3.6-1.2-7.4-3-9.3,2.9
		c-6.8-1.2-13.7-3.1-20.7-3.4c-6.8-0.3-13.7,1.2-20.6,1.6c-5.8,0.3-11.7,0-17.5,0.3c-5.5,0.3-10.9,1.2-16.4,1.7
		c-8.2,0.9-16.4,1.8-24.6,2.5c-4.5,0.4-8.4,1-12.9,3.1c-4.8,2.2-11.6,0.4-17.5-0.4c-3.2,1-5.8,4.8-10.4,1.2c-1.1-0.8-5,2.2-7.8,3.2
		c-1.5,0.5-3.3,0.5-4.9,0.6c-1.1,0.1-2.4-0.4-3.4,0c-5.7,2.4-11.4,3.1-17.4,1.5c-0.7-0.2-1.6,0.3-2.3,0.6
		c-5.2,1.8-10.4,3.6-15.9,1.2c-0.4-0.2-1-0.3-1.5-0.3c-10.3,0.8-20.6,1.6-31,2.3c-2.9,0.2-5.8-0.2-8.7-0.2c-5.2,0-10.4-0.3-15.6,0.2
		c-6.9,0.7-13.8,2.3-20.8,2.9c-3.9,0.3-7.9-0.6-11.6-1.7c-2.2,0.5-4.3,1-6.5,1.3c-6.3,0.8-12.5,1.9-18.8,2.3
		c-6.8,0.4-13.7,0.3-20.5,0.4c-1,0-2.1-0.5-2.9-0.2c-9.4,3.7-18.4,0.5-27.3-2c-7.1-2-14.2-4.4-20.9-7.4c-3.3-1.5-5.5-5.1-8.5-7.4
		c-3.9-3-2.6-6.7-2.1-10.4c0.4-2.5,0.5-5.2,0.3-7.7c-0.6-7.2,4.5-12.6,5.9-19.1c0.9-4.3,1.7-8.7,2.9-13c0.8-2.8,2.3-5.3,3.1-8.1
		c0.9-3.1,1.1-6.3,2-9.4c0.9-3.1,2-6.1,3.2-9c2.4-6,4.9-12.1,7.4-18.1c3.6-8.6,7.3-17.1,10.7-25.8c2.4-6.2,7-11.3,7.9-18.4
		c0.6-4.7,4.7-8.8,6.9-13.4c1.4-2.7,3.1-5.5,3.2-8.4c0.5-9.4,5.2-17.2,9-25.3c2.2-4.7,5.9-8.6,8.2-13.3c2.4-4.7,3.9-9.9,6-14.8
		c1.5-3.5,3.1-6.9,4.9-10.1c4.1-7.4,8.4-14.7,12.5-22.2c3.2-5.9,6-12.1,9.4-17.9c3.4-5.8,7.3-11.4,11-17.1c2.3-3.7,4.5-7.4,7-11
		c4.9-7.3,10-14.4,14.9-21.6c3-4.3,5.8-8.8,8.6-13.1c0.5-0.8,1.1-1.7,1.8-2.4c8.4-8.6,12-20.3,19.3-29.5c1.1-1.4,2.3-2.6,3.7-4.3
		c-1.3-0.4-2.5-1.1-3.5-0.9c-15,3.6-30,7.5-45,10.9c-5,1.1-10.2,1.1-15.3,1.6c-12.5,1.2-25,1.9-37.4,3.8
		c-14.5,2.3-28.8,0.7-42.9-1.8c-4.4-0.8-8.4-5.4-11.8-9c-1.1-1.2,0-4.8,0.4-7.2c0.2-1.8,1.4-3.5,1.2-5.2
		c-1.2-11.4,7.3-17.4,17.1-17.4c9.5,0,19.1-0.5,28.6-0.9c9.5-0.4,19.1-0.6,28.6-1.6c7.7-0.8,15.3-2.7,23-4.1c3.3-0.6,6.8-0.9,10-1.9
		c1.5-0.4,2.4-2.3,3.9-3.2c1.4-0.8,3.1-1.7,4.6-1.6c4.9,0.4,9.7,1.2,14.6,1.8c0.6,0.1,1.4,0.1,1.9-0.2c9-4.5,18.6-4.7,28.4-4.3
		c8.9,0.3,17.8,0,26.7,0.1c3.8,0,7.7,0.4,11.5,0.5c0.6,0,1.5,0.1,1.9-0.3c4-4.4,6.5-1.7,9,1.7c0.6,0.8,1.3,1.7,2.2,2
		c7.2,3,7,9.7,8,15.8c0,0.2-0.1,0.4,0,0.5c5.1,10.1-4.2,15.6-7.5,23c-1.8,4-7.2,6.3-5.6,12c0.1,0.4-0.7,1.2-1.2,1.5
		c-9,4.2-11.8,13.6-17.5,20.5c-4.5,5.4-8.4,11.4-12.2,17.2c-3.4,5.1-6.3,10.5-9.6,15.7c-4,6.3-8.1,12.4-12,18.8
		c-0.9,1.5-0.7,3.6-1.1,5.3c-0.3,1.2-0.6,3-1.4,3.4c-8.2,3.8-11,12-15.4,18.8c-5.2,8-10.5,15.8-15.4,24c-3.7,6.3-6.9,12.8-10.1,19.4
		c-3.5,7.2-6.6,14.6-10.3,21.7c-4,7.7-8.5,15.1-12.6,22.7c-0.6,1.2-1.1,2.8-0.9,4c0.9,6.2-1.4,11.2-4.7,16.2
		c-3.8,5.7-8.6,11.3-10.3,17.7c-2.4,9-7,16.7-10.7,24.9c-3.2,7.1-6.2,14.3-9.1,21.6c-0.5,1.2,0.1,2.9,0.2,4.3
		c0.1,1.1,0.8,2.3,0.4,3.2c-1.6,3.8-3.7,7.3-5.1,11.1c-2.1,6-3.7,12.2-5.6,18.3c-0.8,2.5-1.9,4.8-2.4,7.3c-0.6,3,0.9,4.1,4.1,3.7
		c14.3-1.4,28.5-2.7,42.8-3.9c11.7-0.9,23.4-1.5,35.1-2.3c4.8-0.3,9.6-1.6,14.3-1.2c17.9,1.7,35.5-2.3,53.3-2.8
		c10.1-0.3,20.1-1.4,30.2-2.2c10.1-0.9,20.2-1.7,30.3-2.8c14.1-1.5,28.2-3.6,42.4-4.8c7.6-0.7,15.4,0.1,23.1,0.1
		c3.6,0,7.3-0.6,10.9-0.4c4.6,0.2,9.1,1.1,13.7,1.5c2,0.2,4,0.3,5.9,0.2c8.2-0.3,16.6-1.3,24.7-0.6c3.6,0.3,9.4,0.4,9.6,7.5
		c0,2.4,4.1,4.6,6.3,7C1276.7,668.4,1278,670.1,1279.6,672z"/>
	<path d="M192.8,231.5c0.5-1.4,0.9-2.9,1.4-4.3c0.6,0.4,1.2,0.8,1.8,1.2c-0.4,1.2-0.4,2.8-1.2,3.5c-6.2,5.4-9.1,12.8-11.9,20.2
		c-0.5,1.4-1.2,3.4-2.2,3.7c-3.7,1.2-3.2,4-4,6.9c-2.8,10.1-6,20.1-12.3,28.7c-1.5,2-1.1,5.2-2.2,7.5c-2.2,4.7-5.3,9.1-7.2,13.9
		c-4.5,11.3-8.7,22.7-12.7,34.3c-3.8,11-7.7,21.9-10.5,33.2c-4.1,16.1-7.4,32.5-11.1,48.7c-0.7,3.1-1.7,6-2.4,9.1
		c-2,8.8-3.7,17.6-5.8,26.4c-1,3.9-3,7.5-4.1,11.4c-0.9,3.1-0.8,6.5-1.7,9.7c-2.5,9.4-5.2,18.8-7.9,28.2
		c-3.1,11.1-6.3,22.2-9.5,33.2c-1.9,6.5-3.9,13-5.9,19.4c-1,3.3-1.8,6.7-2.9,9.9c-1,2.9-2.4,5.8-3.2,8.7c-0.6,2.4-0.5,5.1-0.6,7.6
		c-0.1,1.1,0.3,2.3,0,3.3c-0.5,2.3-2.4,4.9-1.8,6.7c1.8,5.7-2.8,8.6-4.5,12.7c-0.7,1.8-1.4,3.7-2,5.5c-0.5,1.4-0.5,3.5-1.5,4.1
		c-7.2,3.9-6.4,12.3-10.3,18c-0.3,0.5-0.6,1.5-0.3,1.9c4.3,7.9-1.1,13.5-4.6,19.5c-4,6.8-0.1,13.2,7.4,14.9
		c10.9,2.5,21.4,6.4,32.1,9.6c3,0.9,6,1.8,9.1,2.4c6.9,1.3,14,2.3,20.9,3.8c7.3,1.6,14.4,3.5,21.6,5.3c6.2,1.6,12.3,3.2,18.5,5
		c6.7,1.9,13.4,4.2,20.2,5.9c2.7,0.7,5.8-0.1,8.6,0.5c13.1,2.7,26.2,5.5,39.2,8.4c1.3,0.3,2.3,1.3,3.6,1.6c4.1,1,7.6,6.8,12.6,1.6
		c0.3-0.4,2.1,0.7,3.2,1c8.7,2.6,17.4,7,26.2,7.2c12.3,0.3,23.3,5.1,35,7c7.5,1.2,14.4,6.2,21.6,9.4c1.5,0.7,3.3,0.7,6.5,1.3
		c-5.3,0.8-5.1,3.3-4.3,6.6c0.5,2.1-0.4,4.5-0.5,6.8c-0.1,2.3,0,4.7,0,7c-9.1-2-12.7,0.1-17.1,8.3c-1.5,2.8-3.7,4.2-7.3,4
		c-18.4-1-36.4-4.6-54.2-9.1c-14.4-3.6-28.9-7.1-43.3-10.5c-12.5-2.9-25-5.8-37.5-8.5c-16.6-3.6-33.4-6.8-50-10.4
		c-9.3-2-18.7-4.1-27.7-7.2c-12.5-4.3-25.5-5.6-38.3-8.2c-13.2-2.7-26.4-5.2-39.4-8.9c-4-1.1-7.1-5.6-10.4-8.8
		C2.6,705.1,1,698.1,0,691c-0.3-2,1.5-4.2,1.8-6.4c1.6-11.7,2.6-23.5,4.8-35.1c1.3-6.8,4.2-13.4,6.7-19.9c2.2-5.8,5.2-11.3,7.3-17.2
		c2.8-7.8,4.7-16,7.6-23.8c2.7-7.3,6.2-14.3,9-21.6c1.2-3.3,1.5-6.9,2.2-10.4c0.1-0.7,0.2-1.3,0.4-2c1.7-4.9,3.5-9.8,5-14.8
		c2-6.4,3.7-12.9,5.6-19.4c2.3-7.8,4.7-15.6,7-23.4c2.8-9.4,5.6-18.9,8.2-28.4c1.6-5.8,2.7-11.7,4-17.6c0-0.2,0-0.4,0.1-0.5
		c5.3-2.8,2.2-8.4,4.2-12.4c2-4.2,2.6-9.2,3.7-13.8c0.8-3.7,1.2-7.5,2-11.1c2.2-9.9,4.5-19.9,6.7-29.8c1-4.5,1.8-9,3.1-13.4
		c1.4-4.9,3.4-9.6,4.8-14.5c2.5-9.1,4.6-18.3,7.3-27.4c1.7-5.8,4.4-11.3,6.4-17c2.1-6.1,3.6-12.4,6-18.4c2.2-5.6,5-10.8,7.6-16.2
		c0.7-1.6,1.8-3.2,2-4.8c0.5-4.4,0.2-8.5,3.8-12.3c2.5-2.7,2.6-7.5,4-11.4c1.1-3,2.5-5.9,3.8-8.9c3.6-8.2,7-16.5,10.8-24.6
		c2.7-5.8,5.6-11.4,8.7-16.9c1.1-2,2.2-3.3,5.5-1.5c3.2,1.8,7.6,1.6,11.5,1.8c3.3,0.1,6.6-0.3,9.8-0.7c5.9-0.7,6.8,3.9,9.1,7.6
		c3.6,5.8,1.1,12.3,3,18.3c0.3,0.9-1.1,2.3-1.6,3.5c-0.5,1.1-0.7,2.3-1.1,3.5C191.2,230.5,192,231,192.8,231.5z"/>
	<path d="M1740.9,614c-3.4-0.3-6-1.4-7.7-0.5c-2.6,1.3-6.5,4.1-6.3,5.9c0.4,3.5,3.2,6.8,5.2,10.4c0.2-0.1-1.4,1.1-2,0.7
		c-5.4-3.7-9.1,1.3-13.6,2.3c-2.1,0.5-4.5-0.6-6.7-1c-12.7-2.3-25.7-3.7-38-7.3c-15.1-4.4-30.2-2.6-45.4-2.7
		c-18.5-0.2-37.1,0.4-55.6,1.3c-8.6,0.4-17.1,1.9-25.6,3.3c-4.4,0.7-7.5-0.9-11.1-3.1c-3.3-1.9-6.6-3.3-9.4-6.4
		c-4.9-5.4-6-9.4-3.7-16.5c0.9-3,0.3-6.4,0.6-9.6c0.2-2,0.7-4,0.9-6c0.2-2.5-0.1-5.1,0.5-7.5c2.4-9.5,5-19.1,7.8-28.5
		c3.6-11.9,7.7-23.6,11.1-35.6c1.3-4.4,0.9-9.2,4.9-12.5c-1.8-8.3,4.9-14.1,6.2-21.6c0.7-3.9,3.3-7.5,5-11.3c0.8-1.9,1.2-4,2.1-5.9
		c2.2-4.4,4.7-8.7,7-13c0.4-0.7,0.9-1.4,1.1-2.2c2-8.9,5.3-17.2,11-24.5c1.5-2,1-5.4,1.9-8c3.2-9,6.6-17.9,9.9-26.9
		c2.2-5.9,4.5-11.7,6.3-17.7c3-10,5.8-20.2,8.4-30.3c1.7-6.4,2.8-13,4.3-19.4c1.4-5.9,2.7-11.7,4.5-17.5c1.5-4.7,3.9-9.1,5.4-13.8
		c0.5-1.4-1.3-3.4-1-5c0.8-4.4,2.2-8.7,3.3-13.1c1-3.8,1.8-7.6,2.8-11.4c2.2-8.5,4.4-17,6.7-25.4c0.5-1.7,1.5-3.3,2.8-5.9
		c-2.9-0.7-5.7-2-8.4-1.8c-12.4,0.8-24.8,1.8-37.1,3.3c-6.6,0.8-13,3.4-19.6,4.4c-13.9,2.1-26.1,8.4-38.6,14
		c-3.5,1.5-7.1,2.6-10.5,4.3c-2.5,1.2-4.9,2.7-7,4.5c-2.1,1.8-3.6,3.5-6.9,2.6c-1.5-0.4-3.5,1.4-5.3,1.9c-12.5,3.8-25,7.8-37.6,11
		c-7.3,1.9-14.7,0.8-19.9-5.7c-0.9-1.1-1.2-3-1.2-4.5c0.1-5.9,5.2-10.9,3.5-17.3c-0.1-0.5,0.1-1.4,0.5-1.8
		c3.5-3.7,6.7-7.8,10.8-10.8c3-2.2,7.2-2.8,10.8-4.3c9.8-4.2,19.7-8.4,29.4-12.9c6.3-3,12.1-7.2,18.6-9.7c7.2-2.8,14.8-4.6,22.3-6.4
		c15-3.6,29.9-7.7,45-10.3c10.3-1.7,21.1-1.1,31.6-1.4c5.9-0.2,11.8-0.5,17.7-0.2c6,0.4,12.1,1.3,18.1,2.3c6.3,1,12.5,2.6,18.9,3.6
		c8.5,1.2,14.5,8,14.5,16.5c0,2.9,1.1,5.8,1.2,8.7c0.2,4.3,0.8,8.8-0.4,12.8c-3.3,11.4-7.1,22.6-11.1,33.8
		c-3.1,8.8-6.7,17.5-10,26.2c-0.3,0.7-0.2,1.5-0.2,2.3c0.2,1.8,0.9,3.7,0.6,5.4c-1,5.3-2.3,10.6-3.6,15.9c-3.1,12.9-5.6,26-9.7,38.7
		c-2.7,8.5-2.8,17.4-5.5,25.7c-2.6,8.1-5.4,16.1-8.1,24.2c-3.4,10.2-6.7,20.4-10.1,30.6c-0.3,0.9-0.8,1.8-1.2,2.7
		c-2.2,5.3-4.3,10.6-6.5,15.8c-2.1,5-4.4,9.9-6.6,14.9c-2.9,6.4-3.8,14-10.1,18.6c-0.6,0.5-0.9,1.9-0.8,2.8
		c1.1,9.8-6.2,16.7-8.6,25.3c-0.9,3.2-2.4,6.3-3.4,9.5c-3.4,10.6-6.6,21.2-10,31.8c-1.5,4.8-3.1,9.7-4.7,14.5
		c-2.1,6.5-0.6,8.1,6.1,8.1c6,0,12.1,0.9,18.1,1.3c1.7,0.1,3.5-0.6,5.3-0.5c6.5,0.3,13,0.8,19.5,1.2c0.3,0,0.7,0.2,1,0.1
		c12.1-1.8,23.9,0.1,36,1.2c12,1.1,23.6,3.6,35.4,6c4,0.8,7.6,3.3,11.5,4.4c3.9,1.2,8.3,1,11.9,2.7c3.7,1.8,6.7,4.9,9.9,7.7
		c2.1,1.8,4,3.9,5.8,6C1737.1,609.4,1738.8,611.5,1740.9,614z"/>
	<path d="M3071.3,256.7c0.7,1.7,1.3,3.3,1.9,4.6c2.7,0.4,5,0.8,8.2,1.3c0.4-0.3,1.6-1.2,3.1-2.3c1.2,1,2.5,1.9,3.7,3
		c2.2,2.2,4.2,5.6,7.4,0.9c0.1-0.1,3.6,1.2,3.9,2.2c2.6,9.9,3.3,20.1,4.2,30.2c0.6,7.1-0.5,14.4-1,21.6c-0.8,11.1-1.7,22.1-2.6,33.2
		c-0.7,8-1.6,16.1-2.3,24.1c-1.3,15.5-2.7,31.1-3.7,46.6c-1.1,16.4-1.9,32.7-2.7,49.1c-0.9,21.1-1.6,42.2-2.5,63.3
		c-0.5,11.6-1.6,23.1-2.3,34.7c-0.2,3.8,0.3,7.6-0.1,11.4c-0.7,6.5-2,13-2.8,19.5c-0.8,6.2-1.2,12.4-1.8,18.6
		c-0.8,8.2-1.9,16.4-2.5,24.6c-0.4,5.9-0.3,11.7-0.4,17.6c-0.2,9.4,0,18.9-0.9,28.3c-0.6,6.8-2.4,13.5-4.3,20.1
		c-0.5,1.8-3.3,3-4.8,4.7c-1.4,1.3-2.8,2.6-4.5,4.1c-1.2-1.6-2.2-2.9-3.3-4.4c-2,2.7-3.7,5-5.5,7.3c-3.1,3.9-6.5,3.5-10,0.1
		c-5.2-4.9-4-11.6-5.8-17.4c-1.1-3.4-1.8-6.9-2.3-10.4c-0.4-2.7-0.4-5.5-0.4-8.2c0-6.4-0.2-12.9,0.1-19.3c0.2-4.1,1.5-8.1,1.6-12.2
		c0.2-3.9-0.9-7.9-0.7-11.7c0.6-7.8,2-15.6,2.6-23.4c0.5-7.7,0-15.5,0.8-23.2c0.8-8.1,3.1-16.1,3.9-24.3c0.6-5.6,0-11.3-0.1-16.9
		c0-1.1-0.3-2.3-0.2-3.4c0.4-4.4,0.9-8.8,1.5-13.2c0.3-2.2,0.8-4.3,1.1-6.5c0.3-2.5,1.1-5.1,0.6-7.5c-0.8-4.1-1.6-7.8,0.6-11.9
		c1.1-2,0-5.1,0.2-7.7c0.3-3.3,0.9-6.5,1.6-11c-4.4-5.3-0.3-12.9-0.8-20c-0.4-5.8,0.5-11.8,0.8-17.7c0.1-2-0.2-4,0.2-5.9
		c0.8-3.5,0.7-6.4-5.5-7.6c6.9-1.4,5.7-4.6,4.8-9.4c-4.5,5.1-8.2,9.3-12,13.4c-2.8,3.1-9.7,4.5-14.1,2.5c-8.6-4-16.7-5.3-25.6-0.1
		c-2.4,1.4-6.3,2.6-10.6,1c-3-1.2-7.4,1.5-11.2,2.1c-11,1.8-22.1,3.5-33.1,5.3c-1.6,0.3-3.3,1.1-4.4,2.2c-5,5.5-12.4,4.7-18.6,7.1
		c-4.9,1.9-10.6,1.4-16,2c-1,0.1-2.2,0.2-2.9,0.8c-6.9,6.1-15.9,6.1-24.1,8.5c-1.4,0.4-3,0.4-4.4,0.8c-3.5,1-6.5,1.9-9.8-1.5
		c-1.4-1.5-5-1.5-7.6-1.2c-3,0.3-5.3,0.4-7.1-2.7c-1.8-3-4.5-5.5-6.3-8.5c-1-1.7-1.4-3.9-1.6-5.9c-0.5-4.8-1-9.6-1.1-14.4
		c-0.2-6.8,5.3-13.9,11.8-15.7c11-3,22-6,32.9-9c10.5-2.9,20.9-6.2,31.5-8.7c15.4-3.6,30.9-6.5,46.4-9.7c13.1-2.8,26.2-5.9,39.8-5.4
		c3.8,0.1,7.6,0.8,11.2,2.1c9.6,3.4,19,7.3,29.1,11.3c0.9,1.8,2.7,4.8,3.8,8c0.7,1.9,0.7,4.2,0.3,6.2c-0.8,4.1,1.4,5.6,5.1,7.3
		c0.5-11.4,0.8-22.4,1.4-33.3c0.5-8.2,1.4-16.5,2.3-24.7c1-10.5,2-21,3.3-31.5c0.4-3.3,2.1-6.4,2.2-9.7c0.3-8.6,0-17.2-0.1-25.9
		c0-3.8,0.1-7.6,0.3-11.4c0.3-7.4,1-14.8,0.8-22.1C3061.8,264.3,3066.2,260.6,3071.3,256.7z"/>
	<path d="M4555.7,215.3c-1.7-0.5-2.9-1-4.1-1c-12.7-0.3-25.3-0.5-38-0.9c-1.1,0-2.3-0.8-3.3-1.5c-1.3-0.9-2.4-1.9-3.5-2.9
		c-0.9-0.7-2.3-1.3-2.6-2.2c-2.9-8.1-6.3-16.1-4.8-25c1.4-8,5.6-14.2,13.5-17c2.5-0.9,5.5-0.2,8.3-0.3c14.8-0.8,29.6-1.5,44.4-2.6
		c10.9-0.8,21.7-2,32.5-3.3c12.4-1.5,24.8-3.4,37.2-5c12.8-1.6,25.6-3.2,38.4-4.6c7.1-0.8,14.2-1.1,21.2-1.9c3-0.4,4.7,0.7,6.9,2.6
		c3,2.6,6.8,4.2,10.3,6.1c3.3,1.9,9.4,3.4,9.6,5.5c0.5,4.7,2.8,10.4-1.8,15c-1.3,1.3-1.4,4.4-1,6.4c0.5,2.4,0.5,4.5-1.7,5.4
		c-4.3,1.8-7,6.8-12.7,6.1c-2.4-0.3-5,1.2-7.4,1.9c-3.4,1-6.7,1.3-9.8-1.1c-0.5-0.4-1.8-0.4-2.4,0c-5.2,3-11.3,2.7-16.9,3.8
		c-12.5,2.3-25.3,3.3-37.9,5.1c-7.7,1.1-15.4,2.6-23.2,3.7c-2.9,0.4-6-0.2-8.9,0.2c-2.1,0.3-4.7,1.2-5.7,2.7c-1.1,1.7-1.4,4.5-1,6.6
		c1.4,7.1,3.7,14.1,4.9,21.2c1.5,8.7,2.3,17.6,3.3,26.4c1.1,9.3,1.9,18.7,3.2,28c1.5,10.8,3,21.6,5,32.3c2.1,11.5,4.4,23,7.1,34.3
		c2.7,11.3,6.1,22.5,8.8,33.8c2,8.3,3.3,16.9,5.4,25.2c1.5,5.7,3.9,11.2,5.7,16.8c1.9,6.1,3.5,12.3,5.4,18.5c1.3,4.2,3,8.3,4,12.5
		c2.8,11.7,5.4,23.5,7.9,35.3c1.3,6.4,2.5,12.9,3.3,19.4c1.2,9.9,2.1,19.8,2.7,29.7c0.2,3.7-0.6,7.5-5.1,9.1c-1,0.3-2.2,2.9-1.9,3.3
		c2.9,3.4-0.5,5-1.6,7.2c-0.9,1.8-1.3,3.8-2,5.8c0.4,0.2,0.8,0.4,1.1,0.6c-0.4,0.2-0.9,0.7-1.3,0.7c-7.4-0.1-15.1,0.9-21.9-1
		c-3.9-1.1-7.7-6.7-9.2-11.1c-2-5.9-1.6-12.6-2.4-18.9c-0.3-2.4-1.2-4.8-1.5-7.2c-0.9-6.6-1.3-13.3-2.6-19.8
		c-1.5-7.9-3.7-15.8-5.7-23.6c-3.4-13-6.9-25.9-10.2-38.9c-1.8-7.1-3-14.3-5-21.3c-2.5-8.6-6-17-8.6-25.5c-2-6.6-3.3-13.4-5-20.1
		c-2.5-10.4-5.2-20.8-7.4-31.3c-1.2-5.9-1.5-12-2.4-18c-0.5-3.4-1.4-6.8-2.3-10.2c-2.3-8.7-3.9-17.3-3.8-26.5
		c0.1-7.6-2.4-15.2-3.2-22.9c-1.3-11.9-2.1-23.9-3.1-35.9c-0.2-2.6-0.1-5.5-1.2-7.6c-3.5-6.8,0.8-12.6,1.7-18.9
		C4553.6,217.5,4554.7,216.7,4555.7,215.3z"/>
	<path d="M584.1,231.9c1.7-1,3.5-2.9,5-2.7c1.8,0.3,4.1,2.1,4.8,3.8c2,4.6,4.5,4.2,7.4,1.6c4.6,4.4,5.4,9.4,4.6,15.3
		c-0.3,2.5,2.2,5.3,3.4,8.1c0.5,1.2,1.2,2.7,0.9,3.8c-1.1,5-3,9.9-3.7,15c-0.9,6.3-1,12.8-1.4,19.2c-0.3,6.7-0.3,13.3-0.7,20
		c-0.9,16-1.7,32-2.9,47.9c-0.8,10.7-2.4,21.3-3.2,32c-1,12.7-1.4,25.4-2.4,38.1c-0.2,2.2-2.1,4.2-3.2,6.4c-0.6,1.4-1.8,2.9-1.6,4.2
		c2.2,9.9,0.8,19.4-1.9,29c-0.8,2.8,0.2,6.1,0,9.1c-0.7,8.1-0.8,16.4-2.6,24.3c-1.4,5.9-3.1,11.7-2.7,17.6
		c0.5,6.7-1.8,12.4-3.8,18.5c-0.6,1.8,0.3,4.2,0.9,6.1c2.2,7-1.2,13.4-1.8,20c-0.9,8.4-1.9,16.9-2.8,25.3
		c-0.7,6.5-0.6,13.3-2.3,19.6c-1.3,5-1.6,9.6-1.5,14.6c0.1,5.2-1.9,10.3-2.8,15.5c-0.9,5.1-1.5,10.3-2.4,15.4
		c-0.4,2.2-1.4,4.4-1.9,5.9c-0.2,3.5-0.3,6.4-0.5,9.4c-0.2,3.5-0.2,7-0.9,10.4c-2.6,11.7-3.1,23.8-8.2,35
		c-2.8,6.3-3.4,13.6-5.2,21.2c-4.1-5.6-7.8-1-8.8,0.7c-2.3,4.3-6.5,2.3-9.4,4.1c-1.5,0.9-3.8,0.4-4.9,0.4c-2.7-2.1-4.9-4.6-7.6-5.6
		c-7.2-2.5-8.1-9-9.4-14.7c-1.8-7.7-1-15.5,2.2-23c1-2.4,0.8-5.5,0.6-8.3c-0.8-11.9,2.5-23.2,4-34.8c1.7-13.5,3.7-27,5.7-40.4
		c0.4-2.6,1.5-5,2-7.6c0.8-4.8,1.4-9.7,2.1-14.5c0.5-3.7,1.1-7.3,1.6-11c0.4-3,1.8-6.1,1.2-8.9c-1-5.3,3.4-9.7,1.5-15.4
		c-1.2-3.6,1.3-8.4,2.1-12.7c0.3-1.8,0.9-3.5,1.1-5.3c0.7-7.9,1-15.8,1.9-23.6c0.6-5.4,1.9-10.8,2.8-16.2c0.3-2.1,0.2-4.2,0.3-6.3
		c0.2-5.2,0-10.4,2.9-15.3c0.9-1.4-0.6-4.1-0.4-6.2c0.5-5,1.1-9.9,2.2-14.8c1.1-4.6,2-9,0.3-13.5c-0.3-0.7-0.3-1.9,0.1-2.4
		c3.1-4.3,1.6-9.2,2.4-13.8c0.6-3.6,2.1-7.1,2.6-10.7c1-7.1,1.8-14.3,2.5-21.5c0.5-5,0.8-10.1,1.1-15.1c0.4-6.2,0.6-12.4,1-18.5
		c0.3-3.4,1-6.8,1.3-10.2c0.4-5.7-1.1-12.2,1.2-17c3.9-8.2-0.9-15.7,0.3-23.5c0.2-1.3,0.3-2.7,0.9-3.8c1.6-2.7,2-5.1,1.2-8.4
		c-0.7-3,1-6.4,1.2-9.7c0.3-3.8-0.2-7.6,0.2-11.3c0.6-5.3,1.7-10.6,2.6-15.9c0.2-1.5,0.8-2.9,0.7-4.4c-0.3-6.7-1.1-13.5-0.9-20.2
		c0.1-3.8,1.6-7.7,2.9-11.4c1.1-2.9,9.4-4,12-2c1.8,1.4,3.7,2.6,5.5,3.9C583.8,232.8,584,232.4,584.1,231.9z"/>
	<path d="M2784.8,697.2c-2.8,1.2-5.8,2.4-8.7,3.6c-4.5,3.4,0.8,12.4-8.1,14.3c-2.6-2.6-5-6.8-9-1.5c-0.3,0.4-2.3,0.5-2.6,0
		c-2.4-3.1-6.7-4.4-6.8-9.7c-0.1-4.7-2.3-9.2-3.4-13.9c-0.4-1.9-0.3-3.9-0.2-5.9c0.6-9.8,1-19.7,1.9-29.5c0.5-5.5,1.7-11,2.7-16.5
		c1.3-7.8,2.7-15.5,4-23.3c1.2-7.2,2.3-14.4,3.6-21.6c1.1-6.1,2.2-12.3,3.8-18.3c1.7-6.5,4-12.7,5.9-19.2c0.5-1.9,0.1-4,0.5-5.9
		c0.8-3.7,2-7.2,2.7-10.9c0.7-3.3,0.6-6.8,1.4-10.1c1.8-6.9,4.3-13.6,5.8-20.5c1.3-5.8,0.3-12.4,2.5-17.7c2.7-6.4-0.3-12.3,0.9-18.1
		c1.7-8.4,4.7-16.6,6.7-25c1.1-4.6,1.2-9.4,1.7-14.1c0.6-4.7,1.1-9.4,1.9-14c1.6-9.5,2.9-19,5.2-28.3c1.5-6.1,4.7-11.8,6.9-17.8
		c0.9-2.4,0.7-5.2,1.2-7.8c0.8-4.2,1.5-8.4,2.8-12.4c1.9-6.2,5.8-11.9,4.1-19.1c-0.5-2,1.3-4.4,1.7-6.7c0.7-3.2,1.1-6.5,1.8-9.6
		c0.3-1.4,1-2.6,1.6-3.9c1.3-2.9,4-5.5,1.8-9.1c-0.1-0.1-0.2-0.3-0.1-0.5c2.9-9.5,5.5-19.1,9.1-28.4c0.9-2.3,4.9-3.5,7.3-4.1
		c6.8,0.3,13.5,0.6,20.3,1.1c1.4,0.1,2.8,0.7,4,1.4c2,1.2,3.8,2.7,5.5,3.9c2.7,4.6,5.4,9.3,8.3,14.1c-1.3,1.7-3.2,3.9-5.2,6.4
		c1.5,1.2,2.6,2,4,3.1c-2.8,2.6-8.4,4.1-3.3,9c-8.3,6.8-10.6,16.2-12.4,25.9c-1.4,7.7-3.4,15.3-5.1,23c-1.7,7.4-3.1,14.9-5,22.3
		c-1.2,4.5-3.4,8.8-4.4,13.4c-1.7,7.4-2.6,15-4,22.5c-0.6,3.1-1.6,6-2.3,9.1c-2.9,14.2-6.1,28.3-8.6,42.6
		c-2.6,14.4-4.4,28.9-6.8,43.3c-0.7,4-2.5,7.9-3.6,11.9c-2,7.6-4,15.2-5.6,23c-1.6,8.1-2.6,16.3-4,24.4c-1,6-2,12-3.3,17.9
		c-2.5,11.5-5.3,22.9-7.9,34.4c-1,4.5-1.5,9.1-2.3,13.6c-1.6,8.2-3.4,16.4-5.1,24.6c-0.2,0.9-0.6,1.9-0.4,2.8
		c2.2,9.2-1.7,17.9-2.2,26.9C2785.6,693.6,2785.2,695.2,2784.8,697.2z"/>
	<path d="M2588.1,677.8c-3.3,1.4-7.4,1.9-8.6,4.1c-3.4,5.8-8.6,5.7-13.7,5.3c-12.4-0.9-25.6-10.5-25.2-26.2c0-1.9-1.3-3.9-1.6-5.9
		c-1.4-8.8-2.8-17.6-4.1-26.5c-0.5-3.7-0.7-7.5-1-11.3c-0.2-1.6-1-3.6-0.4-4.9c2-4.2,0.1-8-1.2-11.6c-1.3-3.6-3.1-6.6,2.4-8.5
		c-6-5.2-3.5-11.6-4-17.5c-0.1-1.4-0.4-2.9-0.4-4.3c0-2.3-0.8-5.2,0.3-6.8c2.6-4,2-7.8,1.3-11.9c-0.8-4.8-1.9-9.7-1.8-14.5
		c0.1-8,1.3-15.9,1.7-23.9c0.2-4.9-0.5-9.8-0.3-14.7c0.4-7.9,1.3-15.8,1.8-23.7c0.3-4.6-0.9-9.8,0.9-13.7c2.5-5.7-0.7-10.5-0.4-15.7
		c0.1-1.3,1.1-2.5,1.7-3.7c0.4-0.9,1.2-1.7,1.2-2.5c-0.3-9.2-0.8-18.4-1.2-27.6c0-0.8-0.2-1.7-0.1-2.5c1.2-8.2,2.5-16.3,3.6-24.5
		c0.4-3.2,0-6.4,0.2-9.7c0.3-5.7,0.8-11.3,1-17c0-1.5-1-3.1-1.1-4.7c-0.2-6.1,0.1-12.2-0.2-18.2c-0.5-10,0.3-20.4-2.2-29.9
		c-2.9-11.1-1.9-22-1.8-32.9c0-7,5.7-11.1,10.7-15.7c4.6-4.2,7.3-1.3,11.1,0.3c3.6,1.6,7.5,2.7,11.4,3.3c4.3,0.7,7.4,4.3,7.7,8.7
		c0.2,2.6,1.8,5.2,2.7,7.8c1.1,3,3.2,6.1,2.9,9c-1.2,13.6,1.4,26.8,2.8,40.2c0.8,7.6-0.1,15.3,0,23c0.1,4.6,1.2,9.2,0.9,13.8
		c-0.8,13-2.3,26-3.1,39c-1.2,18.5-2,37.1-3.1,55.6c-0.8,14.3-1.8,28.6-2.4,43c-0.6,12.7-1,25.4-1.1,38.1c-0.1,13.9,0,27.8,0.4,41.7
		c0.4,12.2,1.2,24.4,2.3,36.5c1.1,12.2,2.4,24.3,4.1,36.4c0.9,6,3.2,11.7,4.7,17.6C2587.6,673.5,2587.8,676.3,2588.1,677.8z"/>
	<path d="M2519.2,211.5c-1.5-5.3,3.6-5.7,6.2-7.2c5.8-3.4,12.3-5.5,18.3-8.5c7.5-3.7,14.7-8,22.3-11.3c4.9-2.1,10.7-2.2,15.6-4.3
		c14-6.1,28.7-8.5,43.8-8.7c3.5,0,6.9,1.7,10.4,2.7c0.5,0.1,1.1,1.1,1,1.5c-1.5,5.8,5.7,6.1,6.5,10.5c0,0.3,1.3,0.2,1.8,0.6
		c1.2,0.9,3.4,2.1,3.3,2.8c-0.5,2.1-1.5,4.4-3,5.7c-1.8,1.5-4.5,1.9-7.1,2.9c0.6,2,1,3.7,1.8,6.2c3.3-1.7,6.4-3.2,9.5-4.8
		c-2.2,4.1-4.2,8.1-6.5,11.8c-0.5,0.9-2.3,1.1-3.5,1.4c-10.1,2.8-20.2,5.3-30.2,8.3c-8.9,2.6-17.7,5.3-26.4,8.6
		c-5.4,2-10.5,4.9-15.6,7.8c-14.4,8.1-29,16.1-43.1,24.7c-10.7,6.6-20.7,14.3-31.3,21.2c-8.9,5.8-18.2,10.9-27.1,16.6
		c-6.1,3.9-11.9,8.1-17.6,12.5c-4,3.1-7.6,6.6-11.3,10.1c-4.2,4-7.5,8.4-9.4,14.2c-1.1,3.3-4.9,5.5-7,8.5c-3.4,5-6.4,10.2-9.7,15.4
		c-7.5-1.4-7.5-1.4-9.1,5.3c-5.4-5.4-11.9-4-18.3-4.5c-3.3-0.3-7-4.5-9.1-7.8c-2.1-3.3-2.1-7.5-1.5-11.9
		c1.5-11.6,4.3-22.9,11.4-31.8c5.8-7.3,10.8-15.6,19.2-20.7c3.7-2.2,6-6.6,9.3-9.5c4.7-4.1,9.7-7.9,14.8-11.6
		c5.5-4,11.2-7.8,16.9-11.5c9.8-6.4,19.6-12.7,29.5-19c4.3-2.7,8.9-4.8,13.2-7.6c5.1-3.3,9.8-7.2,14.7-10.7c4-2.8,8-5.6,12.2-8.1
		C2515.4,210.6,2517.3,211.3,2519.2,211.5z"/>
</g>
</svg>
