<?xml version="1.0" encoding="utf-8"?>
<!-- Generator: Adobe Illustrator 17.0.0, SVG Export Plug-In . SVG Version: 6.00 Build 0)  -->
<!DOCTYPE svg PUBLIC "-//W3C//DTD SVG 1.1//EN" "http://www.w3.org/Graphics/SVG/1.1/DTD/svg11.dtd">
<svg version="1.1" id="Layer_1" xmlns="http://www.w3.org/2000/svg" xmlns:xlink="http://www.w3.org/1999/xlink" x="0px" y="0px"
	 width="5926px" height="641.4px" viewBox="0 0 5926 641.4" enable-background="new 0 0 5926 641.4" xml:space="preserve">
<g>
	<path d="M5275.7,401.9c-4.8,0.1-5.1-4.7-6.3-8.1c-2.2-6.4-3.6-13.1-5.3-19.7c-1.3-4.9-2.6-9.8-4-14.7c-1.4-5.3-3.2-10.4-4.1-15.8
		c-0.7-4.2-0.3-8.7-0.4-13c-0.2-6.7-0.3-13.4-0.5-20.2c0-0.9-1.1-1.7-1.2-2.6c-0.6-3.3-1.2-6.7-1.5-10.1c-0.5-5.3-0.6-10.7-1-16
		c-0.7-10-1.3-20.1-2.3-30.1c-0.3-2.9-1.8-5.6-2.2-8.5c-0.6-4.9-0.2-9.9-0.9-14.7c-1.3-8.6-3-17.1-4.5-25.7
		c-0.4-2.3-0.8-4.6-1.2-6.9c-1.1-7.6-1.7-15.3-3.4-22.8c-2.5-10.9-5-21.8-8.8-32.2c-3.2-8.7-8.4-16.6-15.2-23.1
		c-5.7-5.5-12.7-2.3-15.5,3c-5.2,9.8-10.4,19.6-15.5,29.5c-5.8,11.3-11.6,22.6-17.1,34c-4.3,8.9-8.3,18-12.5,27
		c-3.2,6.9-6.8,13.6-9.8,20.5c-4.4,10-8.5,20.1-12.7,30.2c-3.2,7.8-6.2,15.7-9.6,23.4c-0.7,1.6-2.4,2.7-2.8,4.3
		c-1.2,2.7-2.7,5.3-3.6,8.2c-0.9,2.8-0.9,6-1.8,8.8c-4.9,15.3-10,30.5-15.2,45.7c-1.8,5.4-4.2,10.6-6.2,15.9
		c-1.4,3.8-2.9,7.7-3.6,11.7c-0.6,3.3-2.4,4.6-5.2,5c-7.1,1-11.9,5.5-15.8,10.9c-2.6,3.6-5.7,4.3-8.9,2.6c-2.5-1.3-5.3-4-5.8-6.5
		c-1.4-6.7-3.7-12.7-7.4-18.6c-1.9-2.9-0.9-8.3,0-12.2c1.7-7.2,4.5-14.1,6.6-21.2c3.3-11.5,5.9-23.2,9.7-34.5
		c3.2-9.5,7.9-18.6,11.7-28c0.8-1.9,0-4.3,0.8-6.2c2.2-5.1,4.9-10,7.3-15.1c0.5-1,0.3-2.4,0.8-3.4c1.1-2.4,2.5-4.8,3.8-7.2
		c0.3-0.5,1-0.8,1-1.3c0.1-10,4.1-18.3,9.8-26.3c2.9-4.1,4-9.6,6.1-14.3c4.5-9.9,9.4-19.7,13.9-29.7c1.9-4.1,3.1-8.5,4.8-12.7
		c1.5-3.5,3.2-6.9,4.9-10.3c2.1-4.2,4.4-8.3,6.5-12.5c3-6,7.6-11.7,8.6-18c1.8-11,8.6-19.1,13.6-28.2c7.8-14.3,20.3-22.5,37.1-22.7
		c9.9-0.1,20-0.7,29.8,0.3c5.9,0.7,11.5,4,17.1,6.5c2.8,1.2,5.5,2.9,7.7,5c3.5,3.5,6.5,7.5,9,10.4c-0.5,3-1.8,5.5-1,7.1
		c1,2,1.8,6.1,7.4,3.1c3.7,12.8,7.3,25.1,10.9,37.5c0.9,3.2,2.3,6.2,2.9,9.5c0.5,3,0.2,6.1,0.4,9.2c0.1,1.8,0.4,3.5,0.7,5.3
		c1.1,7.3,4.9,13.9,4.9,21.7c0,4.4,2.9,8.8,4.2,13.4c0.6,2,0.2,4.2,0.4,6.4c0.2,1.8,0.5,3.6,0.9,5.4c0.8,3.4,4.9,6.5,0.7,10.2
		c-0.1,0.1-0.2,0.3-0.1,0.5c1.5,6.3,2.6,12.7,4.7,18.8c1.1,3.2,2.7,5.6,0.3,6.9c0.2,3.2,0.2,5.5,0.5,7.8c0.2,1.4,0.7,2.8,1.1,4.3
		c0.3,0.9,1,2.5,0.7,2.7c-4.5,3.6,0.2,6.2,0.6,9.3c1.1,8,1.5,16.2,2.1,24.3c0.1,0.6-0.1,1.3-0.1,1.9c0.8,8,1.3,16.1,2.4,24.1
		c0.5,3.6,3,7,3.3,10.6c0.4,4-0.6,8.1-1.1,13c2.2,2,4.5,5,2.8,9.9c-0.5,1.3,0.8,3.3,1.5,4.9c0.5,1.2,2.1,2.2,2.1,3.3
		c0.2,5.4,2.6,10.1,4.6,14.9c1.8,4.3,4.4,8.4,6.8,12.5c0.4,0.7,1.7,1.5,2.5,1.4c8.8-0.9,17.3-0.8,24.6-8.2c5.1-5.2,8.7-11.1,12.4-17
		c2.7-4.3,4.3-9.6,5.5-14.6c3.4-13.4,6.3-27,9.4-40.5c0.2-0.9,0.2-2,0-3c-0.6-3.9-0.9-7.6,3.4-7.4c-0.8-2.7-2.1-5.2-2-7.7
		c0.2-5.5,1.1-11,1.9-16.4c0.2-1.1,1.4-2,1.9-3.1c0.4-0.7,0.7-1.6,0.6-2.4c-0.2-1.9-1-3.9-1-5.8c0-7.9,0.2-15.7,0.5-23.6
		c0.4-9.2,0.9-18.4,1.5-27.6c0.5-7.7,1.2-15.4,1.8-23.1c0.2-2.8,0.6-5.6,0.9-8.4c0.6-8,1.1-15.9,1.9-23.9c0.1-1.5,1.2-2.9,2.2-5.3
		c-0.5-1.4-4.2-4.1,0.5-6.5c0.4-0.2,0.2-2.6-0.3-3.7c-5.8-11.3-3.7-23-2.7-34.8c0.5-5.4,0.3-10.8,0.5-16.2c0.4-10.8,1-21.7,1.4-32.5
		c0.2-5.2,0.6-10.4,0-15.5c-0.8-7.6,4.7-14.5,12.2-14.6c1.4,0,2.7-0.9,4.1-1c4.2-0.3,8.4-0.5,12.7-0.5c1.4,0,2.9,0.8,4.3,1.1
		c4.7,0.9,9.4,1.7,14,2.6c-0.4,0.4-0.8,0.7-1.2,1.1c0.8,2.1,1.6,4.2,2.4,6.3c0.4,1,0.9,2.1,1,3.2c0.9,7.8,2.2,15.6,2.3,23.4
		c0.2,9.9-0.6,19.8-0.9,29.8c-0.1,5.5,0.1,10.9-0.2,16.4c-0.6,11-1.6,22.1-2.2,33.1c-0.2,4,0.4,8,0.8,12c0.1,0.8,1,1.8,0.7,2.2
		c-4.8,8,2.1,16.7-2,24.9c-3.4,6.9,0.6,14.5,0,21.8c-0.1,1.1,0.3,2.4-0.1,3.4c-3.3,8.9-1.1,18.3-2.9,27.4c-1,5.2-0.4,10.7-0.9,16
		c-0.2,1.8-1.3,3.5-2,5.3c-0.4,1-1.3,2.3-0.9,3c2.4,4.7-0.6,8.8-1,13.2c-0.3,3.5-2,6.9-2.2,10.4c-0.2,2.7,1.3,5.6,1.1,8.4
		c-0.8,10.6-1.9,21.2-3.2,31.7c-1.1,8.7-2.2,17.5-4.3,26.1c-2.1,8.5-2.3,17.5-8.2,25c-4.6,5.8-8.1,12.4-12.2,18.5
		c-2.5,3.7-4.4,8.4-7.8,10.8c-4.1,2.9-6.1,7.4-9.6,10.1c-9.6,7.3-19.9,13.5-30.1,20c-1.4,0.9-3.6,0.2-5.5,0.4
		c-3.4,0.3-6.9,0.5-10.3,0.9c-7.2,0.9-14.3,2.9-21.4,2.7c-10.7-0.4-19.1-6.2-25.7-14.6c-2.9-3.7-6.3-7.1-8.5-11.1
		C5277.3,410.4,5276.9,406.1,5275.7,401.9z"/>
	<path d="M5785.7,333.4c4.5-1.9,7.8-3.3,11.1-4.5c3.9-1.4,8.3-1.8,11.6-3.9c16.9-10.7,32.3-23.5,45.7-38.4
		c3.7-4.2,5.8-9.9,11.5-12.2c-1.5-4.4,3.2-4.9,4.8-7.6c-0.7-1.2-1.3-2.5-2-3.8c0.5,0.1,1.1,0.2,1.6,0.2c0.9-3,1.9-5.9,2.5-9
		c1.2-6.2,2.1-12.5,3.2-18.7c0.7-3.6,1.8-7.2,2.4-10.9c0.5-2.8-4.2-10.1-7.4-11.4c-11.4-4.8-23.1-6.2-35.4-4.1
		c-22.1,3.7-42.9,11-62.7,21.6c-7.6,4.1-15.3,7.8-23.1,11.6c-1.7,0.8-4,1.5-5.7,1c-5.1-1.5-9.1-0.4-12.1,3.4
		c-4.1-3.8-8.6-7-11.8-11.3c-2.4-3.2-3.4-7.5-4.4-11.5c-1.6-6.3-2.6-12.7-4-20.3c7-3.7,14.4-7.6,21.8-11.5c3-1.6,6.1-3.1,9.2-4.5
		c1.4-0.6,3-0.7,4.4-1.3c2.9-1.3,6-2.3,8.6-4.1c5.3-3.7,10.7-6.9,17.6-5.8c0.7,0.1,1.8,0.2,2.3-0.2c7.1-6.2,16.4-6.9,24.8-9
		c10.6-2.7,21.8-3.8,32.8-4.6c6.6-0.5,13.4,0.8,20.1,1.4c9.2,0.9,18.8,0.7,27.6,3.2c9.3,2.6,19.7,3.2,27.1,11.2
		c2.1,2.3,5.3,3.5,7.9,5.5c1.1,0.9,2,2.2,2.7,3.5c5.2,9.4,7.3,19.7,7.3,30.2c0,8.4-1.4,16.7-1.6,25.1c-0.1,5.4,0,11-3.1,15.4
		c-4.2,5.9-0.5,13.1-4.3,18.8c-2.3,3.6-5.1,7.2-6.4,11.2c-1.8,5.3-6.4,8.1-9,12.5c-4.5,7.4-8.8,15-14.1,21.8
		c-4.8,6.1-10.7,11.3-16.4,16.5c-7.6,6.8-15.4,13.5-23.3,19.8c-8.1,6.4-16.6,12-27.4,13.1c-2.6,0.3-6.2,1.2-7.5,3.1
		c-3.5,5.1-8.7,4.7-13.6,5.8c-5.6,1.2-11.2,2.2-16.6,3.9c-8.4,2.7-16.9,1.4-25.3,1.3c-7.4-0.1-14.9,0.6-22.3,0.3
		c-3.6-0.1-7.2-1.5-10.7-2.6c-6-1.9-12-3.8-17.8-6.2c-6.4-2.6-12.5-5.9-18.8-8.8c-6-2.8-12-5.3-17.9-8.2c-7.5-3.8-14.8-7.7-22-12
		c-1.9-1.2-3-3.8-4.6-6c-1.3-0.6-3.4-1.1-4.8-2.4c-5.6-4.9-11.2-9.8-16.3-15.1c-2.1-2.1-3.1-5.3-4.6-7.9c-3.1-5.3-6.6-10.3-9.2-15.8
		c-2.5-5.1-3.8-10.7-6-16c-2-4.9-3.5-10.5-6.8-14.3c-3.9-4.4-2.3-7.2,0.8-11c-6.6-1.9-7.2-6.5-7.1-12.3c0.1-4.3-1-9.7-3.7-12.8
		c-2.3-2.7-0.3-4.5-1.1-6.6c-2.6-6.1-4.9-12.4-7.3-18.6c-0.2-0.6-0.8-1.4-0.6-1.8c2.8-5.2-1.4-9.6-1.7-14.4
		c-0.6-9.4-1.6-18.8-2.1-28.2c-0.3-6.5-0.7-13.2,0.2-19.7c0.9-6.6,3.2-13,5.1-19.4c0.5-1.6,1.7-2.9,1.8-4.5c1-3.7,1.6-7.5,3-11.1
		c1.6-4.3,3.7-8.5,5.8-12.6c0.5-1.1,1.8-2.5,2.8-2.6c4.2-0.1,4.7-3.7,6.1-6.2c1.5-2.7,1.7-6.1,5.9-6.3c0.7,0,1.3-1.7,2-2.6
		c0.7-0.9,1.4-2.6,2.1-2.5c4.5,0.2,5.5-4.1,8.3-6.1c4.1-2.9,8.5-5.5,13.1-7.6c4-1.8,7.3-3.4,9.9-7.5c2.3-3.6,7.2-5.5,11-8.1
		c1.2-0.9,2.5-1.7,3.8-2.5c1.3-0.8,2.6-1.6,3.9-2.2c0.4-0.2,1.2,0.1,1.4-0.1c5.1-6.1,14.1-5.5,19.4-10.3c7.9-7.1,17.5-8.9,26.8-12.2
		c1.5-0.5,3.3-0.3,4.9-0.6c1.7-0.3,3.7-0.5,5-1.4c4-2.9,9-3.6,13.1-5.6c7.5-3.8,15.6-4.7,23.5-6.7c8.3-2.2,16.9-4.6,25.3-4.3
		c6.6,0.2,12.4-3.5,18.9-2.1c2.3,0.5,4.7,1.3,7,1.4c2.9,0.1,5.9-0.7,8.8-0.8c1.5-0.1,3,0.3,4.4,0.5c13.2,2.2,26.5,3.7,39.9,1.8
		c1.4-0.2,3.7,1,4.4,2.2c3.3,5.3,8.1,6.4,13.8,6.1c1.6-0.1,3.3,0.7,5.3,1.2c-1.4,2.8-2.4,5-3.6,7.5c3.3,2.7,6.7,5.1,9.6,8
		c0.5,0.5-0.6,2.7-1.2,4.1c-0.7,1.7-1.7,3.2-2.5,4.8c0.5,0.3,0.9,0.7,1.4,1c1.3-0.4,2.6-0.8,4.6-1.3c-0.5,1.3-0.7,2.5-1,2.5
		c-8.5,0.6-12.9,9.8-21.4,10.4c-0.5,0-1.5,1.1-1.5,1.6c0.5,5-3.6,4.6-6.4,5.1c-10.8,2-21-0.6-31.4-3.8c-12.5-3.9-25.1-5.9-38.6-3.2
		c-15.8,3.1-31.5,6.4-46.6,11.8c-22,7.8-43.4,17.1-63.5,29c-6.6,3.9-13.4,8.2-17.5,15.3c-0.6,1-1,2.1-1.7,3c-2,2.8-3.7,6.1-6.3,8.4
		c-9.1,8-16.9,16.7-19.6,28.9c-1.2,5.2-3.5,10.2-3.8,15.4c-0.6,11.5-1.3,23.2-0.1,34.6c1.1,10.1,5.6,19.7,7.3,29.7
		c2.1,12.6,8.1,23.7,12.1,35.5c2.9,8.8,6.9,17.3,11.1,25.6c4.8,9.6,12.7,16.4,22,21.5c7.3,4,14.7,7.8,22.2,11.4
		c8.3,3.9,16.5,8.2,25.2,10.9c6.1,1.9,12.9,1.7,19.5,2.3c7.4,0.7,14.7,1.5,22.1,1.7c3.9,0.1,7.8-1.2,11.7-1.5
		C5783,332.7,5785,333.3,5785.7,333.4z"/>
	<path d="M3212.4,86c0.7-0.8,1.5-1.8,2.4-2.9c-0.2-0.4-0.2-1-0.5-1.3c-1.8-2.1-3.6-4.1-0.6-6.7c0.5-0.4,0.7-1.6,0.5-2.2
		c-1.6-5.2,2.4-7.6,5.7-8.9c4.6-1.9,9.7-2.3,14.7-3.4c2-0.5,4.4-0.5,6-1.6c5.6-4,13.5,2.7,14.7,7.9c0.3,1.2,0.4,2.8,1.2,3.5
		c3.3,2.6,4.2,5.3,2,9.1c-0.4,0.7,0.6,2.3,1,3.4c1.2,3.4,2.5,6.7,3.7,10.1c1.4,4,3.8,7.9,3.8,11.9c0.2,16,6.4,30.9,7.5,46.6
		c0.6,7.7,1.1,15.3,2.2,22.9c0.7,5,2.4,9.8,3.3,14.8c2.1,12.3,3.9,24.8,6.1,37.1c2.2,12.4,4.8,24.7,7,37.1c0.8,4.5,0.8,9.1,1.4,13.6
		c0.3,2.4,1.1,4.8,1.2,7.2c0.1,1.5-0.7,3.1-1,4.5c3.6,5.7,3.1,12.3,3.6,18.7c0.2,2.6,0.5,5.1,0.7,7.7c0.2,3.9,0.3,7.8,0.4,11.8
		c0,1.1-0.8,2.6-0.3,3.3c4.4,7,1.9,15,2.7,22.4c0.7,6.3-1,12.7-1.2,19.1c-0.2,6.2,0.3,12.5,0.1,18.7c-0.1,2.9-1.3,5.8-1.5,8.7
		c-0.4,6.1-0.3,12.3-0.8,18.4c-0.3,3.7-1.5,7.3-2.5,10.9c-1.9,6.9-3.1,13.5-1.4,20.9c2.1,9-1.2,17.2-7.3,24.2
		c-3.5,4-7.7,7.5-10.2,12c-2.7,4.8-6.6,4.5-10.2,3.8c-4.4-0.8-5.8-4.7-4.9-9.8c0.1-0.5-0.1-1-0.2-2c-5.7,0.3-7.5-3.9-9.3-8.4
		c-1-2.6-4.1-4.4-5-7c-1.2-3.7-1.9-7.7-1.7-11.6c0.3-6.6,1.2-13.1,2.1-19.7c0.3-2.3,1.3-4.4,2.1-7c1-0.6,2.5-1.5,5-3
		c-2.6-1-4-1.6-5.8-2.3c0.6-3.1,1.2-6.3,1.7-9.5c0.1-0.4,0.1-0.9,0.1-1.4c-0.4-3.5-1.8-7.2-1.1-10.4c1.7-7.7,2.5-15.1,0.8-22.9
		c-0.9-4.3,0.8-9.1,0.8-13.6c0.1-4.7-0.5-9.4-0.6-14.1c-0.1-2.3,0.4-4.6,0.4-6.9c0-1.6-0.3-3.3-0.7-4.9c-0.2-1-0.9-1.8-1-2.8
		c-0.4-6.5-0.6-13-1.1-19.4c-0.4-5-1.3-10-1.6-15.1c-0.1-1.6,0.7-3.3,1-4.9c-1.9-6.7-4.3-13.4-5.6-20.3c-2-10.4-3.2-21-4.6-31.5
		c-0.2-1.5,0.1-3,0.1-4.5c-0.1-3.8,2.9-8-1.7-11.5c-0.8-0.6-0.1-3.2-0.3-4.8c-0.4-3.5-1-6.9-1.4-10.4c-0.2-1.3-0.5-2.9,0.1-3.8
		c1.7-2.6,0.9-4.3-1.5-5.7c-2.4-1.4-4.5-1.8-6.5,0.8c-3.6,4.6-6.6,0.5-9.8-0.8c-1.9-0.8-4-1.2-6.1-1.7c-0.2,0.6-0.4,1.1-0.7,1.7
		c1,1.2,1.9,2.4,3.7,4.7c-3.5-0.3-6-0.5-8.5-0.8c-6.5-0.7-12.9-1-18.4,3.8c-1,0.9-2.7,1.2-4.2,1.3c-5.2,0.6-10.4,0.9-15.6,1.6
		c-1.4,0.2-2.7,1.2-4,1.8c-1.7,0.8-3.4,2.1-5.2,2.3c-10.3,0.9-19.1,5.5-28,10c-4.4,2.3-9.1,3.9-13.7,5.8c-8.6,3.5-17.2,7-25.8,10.4
		c-1.1,0.4-2.7,1.1-3.3,0.6c-4.9-3.6-9.9,0.3-14.8-0.3c-2.8-0.4-5.6-0.4-9.6-0.6c0,0-0.6,1.2-1.1,2.5c-1.3,3.1-2.7,6.1-3.8,9.3
		c-0.5,1.3-0.4,2.8-0.6,4.2c-0.3,2.4-0.8,4.9-0.9,7.3c-0.3,6.8-2.6,13.2-0.5,20.5c1.5,5.1-1.8,11.4-2.3,17.3
		c-0.7,8-0.6,16.1-1.1,24.1c-0.4,6.4-1,12.8-2,19.2c-0.9,5.8-3.8,11.7-3.2,17.2c0.7,5.5-2.8,9.7-2.1,14.6
		c1.7,12.2-2.6,23.7-3.1,35.7c-0.3,6.9-2.4,13.7-4.3,20.4c-2.4,8-5.4,15.9-8.5,23.7c-1,2.4-3.3,4.3-5,6.4c-1.9,2.4-3.8,4.8-5.8,7.4
		c-1.7-4.2-5.2-3.5-9.4-3c-3.9,0.5-8.1-0.7-12.1-1.6c-1.2-0.3-3.1-2-3-2.9c0.7-6.7-4.7-10.3-8.1-14c-5-5.5-3.8-10.8-1.9-16.1
		c1.6-4.3,5-7.9,7.5-11.9c0.3-0.4,0.5-0.9,0.5-1.3c0.9-7.1,1.5-14.3,2.7-21.4c1-5.9,2.7-11.8,3.8-17.7c1.2-6.2,3.3-12.6,2.8-18.8
		c-0.9-12.4,0.9-24.7,2.1-36.8c0.7-8,2-15.8,2.2-24c0.3-12.5,1.4-25.1,2.7-37.6c0.8-8.1,2.7-16.2,3.9-24.3c0.5-3.8,0.3-7.8,0.7-11.7
		c0.5-5,1.4-10,1.9-15.1c0.6-6.2,0.7-12.4,1.5-18.6c0.8-5.9,2.5-11.6,3.2-17.5c0.6-5.5,0.2-11,0.4-16.5c0.4-10.8,1-21.5,1.3-32.3
		c0-1.4-1.5-2.9-1.7-4.4c-0.8-5.1-1.3-10.1-1.8-15.2c-0.3-2.8-0.6-5.6-0.7-8.4c-0.1-1.7,0-3.4,0-5.8c-0.9-2.2-2-5.1-2.6-6.6
		c4-4.3,7-7.4,9.8-10.8c3.2-3.9,6.9-3.6,11.2-2.2c2.2,0.7,4.9,0.2,7.3,0.1c3.3-0.1,6.5-0.2,9.8-0.5c4.6-0.5,4.5,3.5,6.2,5.9
		c2.7,4.1,5.4,8.2,8.5,11.9c2.4,2.9,2.3,4.8-1,6.4c2.4,4.8,4.8,9.3,6.7,14c0.3,0.7-1,2.7-2,3.3c-3.4,2-3.1,4-1.6,7.4
		c1.7,3.8,3.2,8.5,2.4,12.3c-2.5,10.9-2.3,21.8-1.8,32.9c0.3,6.1-0.5,12.2-0.8,18.3c-0.2,3.2,0.3,4.7,4.2,3.1
		c4.5-1.8,9.6-2.2,14.2-3.9c4.9-1.8,9.4-4.8,14.2-6.7c5.5-2.2,11.1-4.7,16.9-5.7c6-1,11.9-4.6,18.5-0.9c1.8,1,5.3-1.1,8-1.7
		c1.6-0.4,3.3-0.5,5-0.9c8-1.9,15.9-4.1,24-5.7c8.3-1.7,16.7-2.9,25-4.3c8.3-1.4,16.6-2.9,24.9-4.4c2.6-0.5,4.4-1.8,3.4-4.8
		c-1.6-4.9-3.4-9.8-5-14.7c-0.4-1.2-1.1-2.6-1-3.8c1.4-8.7-2.3-16.5-4-24.7c-1.1-5.4-1.4-11-2.2-16.4
		C3214.1,89,3213.2,87.8,3212.4,86z"/>
	<path d="M2069.9,482.6c-2.7,0.2-4.6,0.6-6.4,0.5c-6.5-0.6-13.5-0.2-19.3-2.6c-3.3-1.3-4.7-7.3-7-11.2c-0.2-0.3,0-0.8-0.2-1
		c-8.1-6.7-4.8-15.7-4.5-23.9c0.3-7.2,2.2-14.3,3.3-21.4c1.4-8.9,2.4-17.9,4.1-26.8c2.5-13.8,5.6-27.5,8.2-41.2
		c2.5-12.8,4.8-25.6,7.2-38.4c1.8-9.6,3.6-19.1,5.6-28.7c0.8-3.9-0.3-6.6-4.4-7.4c-9.1-1.7-18.3-3.5-27.5-4.7
		c-9.8-1.3-19.7-2.3-29.6-2.8c-10.6-0.5-21.2-0.1-31.7-0.6c-8.7-0.4-17.5-1.4-26.2-1.9c-8.2-0.5-16.5-0.6-24.8-0.9
		c-8.5-0.4-17-0.9-25.6-1.2c-5.7-0.2-11.7,0.8-17.2-0.2c-15.5-2.9-24.7-12.1-26.2-27.8c-0.5-5,3.6-10.4,5.8-15.6
		c0.3-0.8,1.7-1.3,1.9-2.1c2-6.3,7-11,9.6-16.8c5.6-12.5,14.1-22.9,22.4-33.5c6.9-8.8,14.8-16.7,22.5-24.8
		c7.7-8.2,15.6-16.4,23.6-24.4c3.2-3.2,7-5.9,10.4-9c2.4-2.2,4.5-4.8,7-6.8c16.9-13.5,33.9-27,51-40.4c11.1-8.7,22.1-17.4,33.7-25.4
		c11.2-7.8,23.1-14.7,34.8-21.8c1.5-0.9,3.7-0.9,5.6-1.2c2-0.3,4.1-0.7,6.1-0.5c1.6,0.2,3.1,1.2,4.9,2c4.7-3.5,11.4-0.6,15.1,4.6
		c4.5,6.3,7,12.9,7.5,20.4c0.3,3.8,0.4,7.6,0.7,11.4c1.7,16.4,3.6,32.8,5,49.2c0.8,9.7,0.3,19.4,0.8,29.1c0.3,5.7,1.5,11.4,2.1,17.1
		c0.7,6.9,1.3,13.8,1.6,20.8c0.1,1.6-1.2,3.3-0.9,4.8c0.2,3.9,0.5,7.7,0.5,11.6c0.1,5.7,0.4,11.4,0.1,17.1
		c-0.6,14.8-1.3,29.6-2.1,44.4c-0.4,6.6-0.9,13.1-1.8,19.6c-0.6,4-2.2,7.9-3,11.9c-2.9,14.8-5.5,29.6-8.3,44.4
		c-2.5,13.1-5.7,26-7.9,39.2c-4,23.8-7.5,47.7-11.1,71.6c-0.5,3.6-0.4,7.3-0.4,10.9c0,0.8,1.2,1.5,0.8,1.1c-1.8,6.3-3.6,12-4.8,17.7
		c-0.7,3.2-1.4,4.8-5,6.1c-2.5,0.9-3.8,5.4-5.6,8.4C2069.9,482,2069.8,482.7,2069.9,482.6z M2069.3,96.2c0.2,0,0.4-0.1,0.6-0.1
		c-0.7-2.9-1.3-5.7-2-8.6c-0.8-3.2-2.8-3.6-5.2-2c-5.7,3.8-11.5,7.6-17,11.7c-9.1,6.9-17.9,14.2-26.9,21.1
		c-6.5,5-13.5,9.5-19.7,14.8c-8.8,7.5-16.6,16.2-25.6,23.4c-11.8,9.3-21.4,20.5-31.5,31.4c-4.7,5.1-7.8,11.4-13.5,15.8
		c-3.5,2.7-5.7,7.3-8.4,11c-1,1.4-1.9,2.8-2.8,4.3c1.8,0.9,3.6,2.5,5.4,2.7c8.1,0.8,16.3,1.1,24.5,1.9c4.5,0.4,9,1.5,13.5,1.9
		c4.1,0.4,8.3,0,12.4,0.3c2.4,0.2,4.8,1.3,7.2,1.5c6.2,0.5,12.5,0.9,18.7,1.2c2.6,0.1,5.2-0.1,7.8,0c4.2,0.2,8.5,0.5,12.7,0.8
		c0.9,0.1,1.9,0.6,2.8,0.6c5.6,0.3,11.3,0.1,16.8,1c8.8,1.4,17.4,3.7,26.1,5.3c3.4,0.6,6.7,0.1,6.9-4.8c0.3-5.9,1-11.7,1.5-17.6
		c0.4-4.8,1.2-9.6,1.1-14.4c-0.2-12.1-0.8-24.2-1.2-36.3c-0.3-8.9-0.4-17.7-0.7-26.6c-0.2-4.7-0.6-9.5-1-14.2
		C2070.9,113.6,2070.1,104.9,2069.3,96.2z"/>
	<path d="M497.3,305.1c3.9-0.4,7.8-0.7,11.7-1.1c0.6-0.1,1.3,0.3,2,0.1c5.5-1.1,11-2.3,16.5-3.4c1.3-0.3,3.2-0.7,3.9-0.1
		c3.9,3.3,7.2-0.2,10.8-0.5c7.3-0.6,14.7-0.6,22.1-0.7c2.3-0.1,4.6,0.1,6.8-0.1c5.3-0.4,7.8,2.3,8.1,7.7c0.2,3-1.3,6.6,2.3,9.1
		c0.4,0.3-1.5,4.4-2.8,6.5c-0.7,1.2-2.3,1.8-3.5,2.7c1.4,0.6,2.9,1.1,4.5,1.7c-1.5,9.3-1.5,9-11,10.8c-6.7,1.3-13.2,3.7-19.8,5.4
		c-2.3,0.6-4.8,1-7.1,0.9c-6.2-0.2-12.2,0.5-18.3,2.3c-5.2,1.5-11,0.9-16.5,1.3c-4.9,0.3-9.8,0.7-14.7,1c-4.4,0.3-8.8,0.7-13.1,0.8
		c-6.3,0.1-12.6-0.2-18.9-0.1c-3.8,0.1-7.6,0.8-11.3,1.3c-1.5,0.2-3,0.8-4.4,0.6c-9.8-1.4-19.6-2.8-29.4-4.5c-3.9-0.7-7-2.7-8.3-6.9
		c-0.2-0.7-1.4-1.2-2.6-2.1c-3.1,7.2-4.1,14.3-3.5,21.5c1.3,16,2.7,32,4.7,48c0.6,4.6,2.9,9.1,4.7,13.5c2.8,7.3,5.3,14.7,8.8,21.6
		c1.8,3.5,5,6.7,8.2,9.1c8,5.7,16,11.8,24.9,15.8c4.2,1.9,10.4-0.2,15.5-1.4c7-1.6,13.8-4.3,20.8-6.1c5-1.3,10.2-1.8,15.2-3.1
		c2.3-0.6,4.3-2.8,6.6-3.2c9.4-1.7,19-3,28.4-4.5c6.8-1.1,13.5-2.9,20.3-3.6c6.5-0.7,13.2-0.2,19.7-0.8c3.3-0.3,6.4-2,9.7-2.8
		c8.5-2.3,17-2.7,24.8,1.9c2.2,1.3,3.7,4.1,4.9,6.5c1.4,2.6,1.8,5.7,3.1,8.4c1.7,3.4,1.8,6.1-1.1,8.9c-0.9,0.9-0.7,3-1.3,4.4
		c-1,2.4-1.8,5.8-3.7,6.8c-5.2,2.7-10.8,4.9-16.5,6.3c-7.8,2-15.8,3.1-23.7,4.7c-4.8,1-9.5,2.4-14.3,3.4c-4.4,0.9-8.8,1.6-13.2,2.5
		c-4.1,0.9-8.2,2-12.7,3c0.5,1.3,1,2.3,1.4,3.5c-0.5,0.1-1,0.4-1.1,0.3c-5.7-4.7-11-1.9-16,1.1c-5.2,3.2-10.2,4.2-16.4,3.8
		c-6.4-0.4-13,1.7-19.4,3.2c-11.1,2.5-22.1,5.2-33.2,8c-6.4,1.6-11.9-2.1-17.9-2.8c-7.9-0.9-12.2-7.4-18.3-11.2
		c-5.4-3.4-11.2-6.1-16.1-10c-6-4.8-11.5-10.5-16.7-16.2c-1.9-2.1-2.2-5.6-3.7-8c-3-4.8-6.3-9.5-9.7-14c-4-5.3-6.3-11.1-7-17.7
		c-0.2-1.6-1-3.1-1.6-4.7c-1.5-3.5-2.3-6.9-1.1-10.8c0.6-1.8,0.2-4.7-1-6c-4.5-4.8-5.7-10.6-6.5-16.8c-1.3-10.2-3.4-20.3-3.9-30.5
		c-0.3-6-1.6-12.4,1.6-18.3c0.3-0.5,0.3-1.4,0.1-1.9c-4-9.2,0.8-17.6,2.1-26.3c1-6.3,2.4-12.6,3.8-18.9c0.6-2.8,1.9-5.4,2.6-8.2
		c1.9-6.8,3.7-13.6,5.4-20.5c0.3-1,0.1-2.1,0.1-3.2c0-2.1-0.1-4.2,0.2-6.3c0.7-4.5,1.2-9,2.5-13.4c1.9-6.6,4.3-13,6.6-19.5
		c0.1-0.4,1.1-0.9,1-1c-3.6-6.2,2.5-10.2,4.1-14.8c2.8-7.7,2.4-16.9,9.3-23.1c1.2-1.1,1.5-3.8,1.5-5.7c-0.2-5.2,2.6-8.7,5.8-12.1
		c10.4-11.1,23.4-17.7,38-20.2c9.6-1.7,18.8-4.5,28.3-6.2c6.5-1.1,13.2-1.2,19.9-1.8c4-0.3,7.9-2.1,12.2,0.3c1.4,0.8,4.4-1.8,6.7-2
		c14-0.8,27.9-1.4,41.9-1.7c2.2,0,4.4,1.7,7.3,2.9c6.1-3.7,13.6-1.1,21-0.9c4.7,0.2,9.3,0.1,14,0.3c6.1,0.1,12.1,0.2,18.2,0.6
		c1.2,0.1,2.8,0.8,3.3,1.8c1.9,3.6,6.4,5.2,7.2,9.8c0.2,1.2,2.9,2.1,4.5,2.8c1.3,0.5,2.8,0.5,3.7,0.7c0,3.5,0,6.6,0,8.2
		c-1.7,4.9-3.3,8.5-4.1,12.4c-0.6,3,0.1,6.2,0,9.3c0,0.8-0.5,2.2-1,2.4c-1.1,0.4-2.5,0.2-3.7,0c-3.1-0.5-6.2-1.5-9.3-1.6
		c-7.9-0.2-15.8,0-23.8-0.1c-12.6-0.3-25.1-0.8-37.7-1.2c-10.7-0.3-21.5-0.7-32.2-0.8c-2.4,0-4.7,1-7.1,1.3
		c-8.1,0.7-16.2,0.9-24.2,2c-6.7,0.9-13.3,2.8-19.9,4.3c-0.3,0.1-0.6,0.4-0.9,0.4c-9.8,0.5-14.6,6.9-18.2,15
		c-1.9,4.3-4.7,8.2-6.3,12.5c-3.8,10.6-7.9,21.3-10.6,32.3c-3.2,13.5-5.1,27.3-7.4,40.9c-0.3,2.1,0.4,4.3,0.7,6.5
		c1.8-0.5,3.7-1,5.5-1.4c1.3-0.3,2.6-1.1,3.7-0.9c6.8,1.3,13.5,0.1,20.2,0c8.3,0,16.6,0.1,24.9,0c8.4-0.1,16.7-0.7,25.1-0.8
		c1.5,0,3,1.2,4.6,1.8C497.2,305.6,497.2,305.4,497.3,305.1z"/>
	<path d="M3468,92.1c-0.3-3.9,2.6-4,6.4-3.7c3,0.2,6.2-0.2,9.1-1.1c10-3.2,20.4-2.9,30.7-3.7c5.6-0.5,11.3,0.6,17,0.8
		c2.9,0.1,5.8-0.8,8.6-0.5c7.2,0.7,14.3,1.8,21.5,2.9c9.1,1.3,18.2,2.5,27.2,4.1c2.2,0.4,4,2.5,6.2,3c3.5,0.7,7.6,1.9,10.7,0.8
		c6.9-2.3,13.1,0.7,19.5,1.3c5.1,0.5,10.7-0.2,14.6,4.4c0.3,0.4,1.5,0.2,2.2-0.1c6-2,11.5-0.5,17.1,1.7c2.2,0.9,5.1,0.1,7.6,0.3
		c4.9,0.4,9.8,0.7,14.7,1.4c2,0.3,3.9,1.5,5.8,2.5c7.4,2.7,16.2-0.5,23.1,5.6c-3.9,9.1-3,13.7,3.6,18c-4.1,4.1-8.1,8.1-12,12.3
		c-1.3,1.4-2.1,3.3-3.5,4.6c-1.7,1.6-3.7,3.2-5.8,4.1c-8.2,3.4-16.6,2.6-24.9,0.3c-6.2-1.7-12.3-3.9-18.5-5.1
		c-13.9-2.6-28-4.7-41.9-7c-16.7-2.7-33.3-6-50.1-8.1c-16.6-2-33.4-3.6-50.1-3.8c-10.1-0.1-20.3,2.9-30.4,4.6
		c-0.8,0.1-1.4,1.1-2.2,1.6c-2.2,1.6-4.3,4-6.7,4.4c-7,1.3-12.1,6.3-16.5,10.4c-4.1,3.8-5.8,11.5-6.2,17.6
		c-0.6,11.2,0.4,22.4,1.1,33.6c0.6,9,1.9,18,2.9,27c0.1,1.3,0.7,2.5,0.9,3.4c4.5-0.4,8.5-0.8,12.6-1.2c0.8-0.1,1.8,0,2.4-0.5
		c4.6-4,9.6-4.5,15.3-2.3c1,0.4,2.7-2.1,4.1-2.2c5.2-0.4,10.4-0.3,15.6-0.4c1.9-0.1,4.1,0.3,5.7-0.5c9.3-4.9,19.2-5.2,29.3-5
		c4.6,0.1,9.1-0.5,13.7-0.6c2.1,0,4.1,0.5,6.2,0.7c0.9,0.1,1.8-0.2,2.7-0.3c3.3-0.5,6.6-1.2,9.9-1.3c5.9-0.2,11.9,0,17.8,0.1
		c8.2,0.2,16.5,0.9,24.6,0.5c8.4-0.4,16.5,0.5,24.7,1.8c6.3,1,13-0.6,19.5-0.9c1.6-0.1,3.2,0.4,4.8,0.8c3.2,0.7,4.3,2.6,2.5,5.4
		c-2.7,4.3-0.2,6.7,2.9,9.2c-2.4,5.7-4.9,11.7-7.5,17.8c-2.5-1-4.6-1.9-7-2.9c0.7,8.6-1.5,11.1-11.3,11.3c-11.2,0.3-22.5,0-33.7-0.2
		c-14.1-0.3-28.2-1.6-42.2-0.9c-7.7,0.4-15.6-0.2-23.4,2.6c-6,2.1-13.1,0.6-19.7,1.4c-9.2,1.1-18.2,3.4-27.4,4
		c-8.1,0.6-16.8,2-24.3-2.2c-5.1-2.8-9.2-7.4-15.1-12.3c2.2,13.5,3.7,25.8,6.3,37.8c2.9,13.1,6.3,26.1,10.4,38.9
		c5.5,17,13.3,33,23.6,47.6c2.7,3.9,7.1,7.8,13,7.8c1,0,2,0.3,2.9,0.6c6.5,2.8,13.2,3.7,20.2,3.4c0.3,0,0.7,0,1,0.1
		c10.5,3.4,21.2,0.8,31.8,1.6c12.5,0.9,25,1.8,37.5,2.3c7.6,0.3,15.1,0.7,22.4,3.3c8.5,3.1,13.9,10.9,13.7,20
		c-0.1,4.2-2.7,5.6-5.3,7.5c-4,2.9-5.8,8.5-11.9,9.1c-2,0.2-3.5,3.7-5.6,4c-4.8,0.7-9.7,0.6-14.6,0.5c-16.6-0.4-33.2-0.7-49.8-1.5
		c-16.9-0.9-33.8-1.7-50.5-4.1c-7.5-1.1-14.7-5.5-21.7-9.1c-5.4-2.7-10.6-6.1-15.2-10c-2.8-2.3-4.3-6-6.4-9.2
		c-0.3-0.5-0.3-1.7-0.6-1.8c-5.1-0.8-6.2-5.2-8-9c-1.3-2.7-2.1-5.7-3.6-8.2c-1.9-3.3-4.5-6.1-6.4-9.4c-4.5-7.7-10.9-15.2-12.6-23.5
		c-1.5-7.7-7.1-12.6-8.5-19.9c-1.6-8.4-3.8-16.7-5.9-24.9c-0.9-3.3-2.2-6.5-3.8-9.6c-2.1-4.2-3.1-7.7-1.8-13
		c1.2-4.9-2-10.7-2.7-16.1c-1-7.5-1.5-15-2.3-22.5c-0.1-1,0.4-2.3-0.1-2.8c-4-4.2-2.1-9.4-2.8-14.1c-0.6-3.7-2.9-7.3-2.6-10.9
		c0.8-11.4-4.3-21.8-5-32.8c-0.4-5.7,0.3-11.5,0.3-17.3c0-2.9,0.3-6-0.4-8.8c-3.5-13.3,0.7-23.7,9.7-33.9
		c11.5-13.1,26.7-18.9,41.9-25.1c5.8-2.4,11.7-4.8,17.7-6.4C3460.4,91.4,3463.9,92.1,3468,92.1z"/>
	<path d="M940.2,325.7c1.5,2.8,2.6,4.8,3.6,6.7c-3.9-0.4-7.6-1.1-11.3-1c-2,0-3.9,1.3-5.9,2c-0.3,0.1-0.6,0.4-0.9,0.4
		c-5.9,0.8-11.9,1.6-17.8,2.3c-1.8,0.2-3.7-0.3-5.5,0.1c-13.7,3.3-27.6,2.7-41.4,2.7c-11.5,0-23.1,0.7-34.6,0.6
		c-11.8-0.1-23.5-0.9-35.3-1.5c-2.5-0.1-5-0.3-7.5-0.5c-7.7-0.5-15.4-1.1-23.7-1.7c0,5.6-0.2,11.9,0.1,18.2
		c0.6,12.7,1.4,25.4,2.3,38.1c0.6,9.3,1.7,18.6,2.2,27.9c0.2,3.3-1.5,6.7-0.9,9.9c0.9,4.6,3.1,8.9,4.5,12.8c5.7,0,10.2,0,15.9,0
		c2.1-2.6,6.3-3.1,11-3.3c5-0.2,10.1-1.2,15.1-2.1c11-1.9,22-4.1,33-5.9c4.4-0.7,9-0.5,13.5-0.7c0.2,0,0.4,0.1,0.5,0
		c5.4-4.8,12.6-2.4,18.7-4.6c2.4-0.9,5.1-0.5,7.7-0.8c2.4-0.4,4.7-1.2,7-1.5c6.7-0.8,13.4-1.7,20.2-2.1c3.8-0.2,7.7,0.2,11.4,0.9
		c2.1,0.4,4.3,1.8,5.7,3.3c2.6,2.9,5.3,6,6.9,9.4c1.2,2.6,1.8,6.2,1,8.9c-1.2,4.5-3.2,8.9-5.8,12.7c-1.3,1.9-4.8,2.3-7.3,3.3
		c-0.6,0.2-1.5-0.2-1.9,0.1c-6.6,6.2-15.7,5.2-23.5,8.1c-1,0.4-2.2,0.4-3.3,0.5c-1.8,0.1-4.3-0.7-5.3,0.2c-6.1,5.6-14.2,3.5-21.2,6
		c-7.3,2.5-15,4.1-22.6,5.4c-12.6,2.2-25.2,3.9-37.8,5.6c-6.9,0.9-13.8,1.6-20.8,2.1c-8,0.6-16,1.1-24.1,1.6
		c-2.1,0.1-4.3,0.6-6.4,0.3c-3.7-0.5-7.3-1.3-10.9-2.2c-2-0.5-4-1-5.8-1.9c-4.1-1.9-8-3.9-12-5.9c-0.3-0.1-0.7-0.5-0.6-0.7
		c1.5-7.6-6.8-10.9-7.7-18.3c-0.9-7.1-3.8-14.4-4.3-21.8c-0.5-7,0.1-14.1,0.2-21.1c0-0.8,0.2-1.6,0-2.4c-1.5-8.4-3.2-16.8-4.5-25.3
		c-0.5-3.3-0.3-6.8-0.1-10.2c0.3-5.9,0.9-11.9,1.4-17.8c0-0.6,0.3-1.4,0-1.8c-3.5-5.6-1.9-11.8-2.1-17.7c-0.2-5.2-1.4-10.3-1.4-15.5
		c0-8.8-0.1-17.8,1.3-26.4c0.5-3.4,1.2-5.7-0.3-9.1c-1.1-2.6,0.7-6.3,1.1-9.5c0.6-5,1.1-10.1,1.5-15.1c0.2-2.7,0-5.5-0.1-8.2
		c-0.2-3.7-1.4-7.7-0.4-11c2.7-8.6,1.8-17.1,1.5-25.8c-0.3-7.5,0.3-15,0.7-22.4c0.8-13.9,1.6-27.9,2.6-41.8c0.3-4.4,1.2-8.3,6.7-9.5
		c1.9-0.4,3.3-3,5-4.5c1.3-1.2,2.6-2.8,4.1-3.1c8.2-1.5,16.5-2.8,24.8-3.9c11-1.4,22.1-2.6,33.2-3.8c4.7-0.5,9.5-1.1,14.3-1.2
		c10.9-0.1,21.8,0.4,32.6,2.9c6.7,1.6,13.8,1.3,20.7,2.1c13.7,1.6,27.4,3.4,41.1,5.2c12.1,1.6,24.3,3,36.2,5.3
		c7.7,1.5,15.2,4.4,22.5,7.1c1.8,0.7,3.2,3.3,4,5.3c2.2,6,4.8,12,5.5,18.2c0.5,4.6-1.7,9.5-2.8,14.2c-0.1,0.5-1.3,1-2.1,1.2
		c-4.5,1.2-8.9,3-13.5,3.4c-4.7,0.4-9.5-0.2-14.2-1.1c-12.8-2.5-25.4-5.9-38.2-7.9c-20.5-3.2-41.1-5.4-61.7-8.1
		c-16-2.1-31.9-3.8-48.1-2.1c-4.9,0.5-9.8,1-14.6,1.9c-4.2,0.8-6.2,3.6-7.7,8c-2.1,5.9-1.3,11.5-0.9,17.3c0.2,3.4-0.8,6.9-0.6,10.3
		c0.2,6.4-4.4,12.3-1.5,19.2c0.9,2.1-0.5,5.1-0.6,7.7c-0.2,6.2,0,12.3-0.4,18.5c-0.3,4.2-1.8,8.4-2,12.6c-0.3,5.2-0.2,10.4,0.6,15.5
		c0.6,4,3.6,5.1,7.9,4.8c4-0.3,7.5-2.3,11-2.7c6.2-0.7,12.7,0.4,19.1,0.8c15.3,1,30.5,2.3,45.8,3c5.3,0.2,10.7-1.2,16.1-1.4
		c4.7-0.2,9.5,0.7,14.2,0.1c17.4-2.2,34.8-4.8,52.2-7.4c7.3-1.1,14.2-0.6,20.4,3.9c0.9,0.7,1.3,2.2,1.7,3.4c0.7,2.5,0.4,5.3,4,6
		c0.7,0.1,0.8,3,1.1,4.6c0.5,2.8,0.7,5.8,1.4,8.5c0.8,3-3.9,10.6-6.9,11.1C944.1,324.5,942.4,325.1,940.2,325.7z"/>
	<path d="M1107.7,399.2c3,5.4,4.7,9.8,7.6,13.4c4.9,5.9,10.4,11.4,15.9,16.9c5,5,10.2,9.8,15.2,14.8c6.7,6.6,12.9,13.7,20,19.9
		c4.8,4.2,10.4,7.5,16,10.8c4.1,2.4,8.5,4.6,13.1,5.7c2.8,0.7,6-1.1,9.1-1.5c10.3-1.3,16.6-8.1,21.8-16.1c0.9-1.4,0.4-3.8,0.6-5.7
		c0.7-8,2-15.9,2.1-23.9c0-4.5-1.7-9-2.8-13.5c-2-8.2-3.3-16.6-6.2-24.4c-3.1-8.4-6.8-16.7-12.3-24.1c-2.9-3.9-4.9-8.6-6.9-13.1
		c-0.6-1.3-0.1-3.1-0.1-5.5c-2.4-3.4-5.6-7.6-8.7-12c-2.9-4.1-6.2-8.1-6.5-13.5c0-0.9-1.9-1.6-2.8-2.6c-2.6-3-5.3-6.1-7.7-9.3
		c-2.2-2.9-4.1-5.9-6.3-9.2c0.3-1.3,0.7-3,1.2-4.7c-0.5,0.3-0.9,0.6-1.4,0.9c-1.6-1.6-3.5-3-4.7-4.9c-3.1-5-6.8-9.8-8.7-15.3
		c-2.7-7.5-5.3-14.8-10.5-20.9c-1.2-1.5-1.3-3.9-1.8-6c-1.3-5.6-4.1-11.5-3.4-16.8c0.7-5.3,0.1-10.6,1.1-15.7
		c0.3-1.7,1.2-3.4,1.8-5.1c-1.2-0.8-2.4-1.6-3.9-2.6c1.4-2.6,2.7-4.9,4.4-8c0.2,0.2-0.5-0.6-0.4-0.5c3.1-6.4,5.7-12.5,9.1-18.1
		c1-1.6,4-2,5.4-3.3c2.3-2.3,4.1-5.5,6.8-6.8c9.4-4.3,19-8.6,28.8-11.6c6.2-1.9,13.2-1.4,19.7-2.3c11.1-1.6,21.8,0.9,32.2,3.8
		c7,2,13.8,5.8,19.8,10.1c12.1,8.6,23.7,17.9,35.2,27.2c3.9,3.2,6.6,7.6,10.2,11.2c3.9,4,8,7.9,12.3,11.5c1.1,0.9,3.4,0.4,4.5,1.1
		c3.6,2.8,7.1,5.9,11,8.3c4.3,2.7,8.2,5.4,9.9,10.6c0.7,2.3,2.9,4.2,4.7,6.6c-4.3,0-6.9,1.2-3.9,6.2c0.4,0.7-0.9,2.3-1.1,3.6
		c-0.3,1.2-0.7,2.5-0.4,3.6c1.2,4.1-0.3,6.8-3.5,9.3c-1.8,1.4-2.7,3.9-4.3,6.3c-5.7-7.7-14.2-2.9-21.3-5.1c-2.3-0.7-5.2-0.6-7-1.9
		c-6.3-4.7-12.3-9.7-18.2-14.8c-10-8.6-20.6-16.8-29.5-26.4c-7.4-8-16.9-12.8-25.3-19.1c-8.5-6.3-18.3-8-28.3-3.7
		c-6,2.6-11,6.3-12.7,13.8c-2,8.6-2.7,16.7,0.1,25.2c2.3,7.1,3.7,14.6,5.8,21.7c0.7,2.3,2.7,4.1,3.9,6.3c2.3,4.3,3.8,9.2,6.8,12.9
		c13.7,16.6,23.1,35.7,32.2,55c4.4,9.4,9.7,18.3,13.9,27.8c3.6,8,6.7,16.3,9.1,24.8c3.4,11.7,6.5,23.5,9,35.4
		c0.8,3.9-0.5,8.3-0.8,12.5c-0.2,3.3-0.4,6.7-0.5,10c-0.1,1.3,0.4,2.8,0,3.9c-3.7,9.5-7.6,18.9-11.2,28.4c-1.4,3.6-1.8,7.6-3.7,10.8
		c-2.8,4.6-5.9,9.3-10.1,12.5c-5.7,4.5-11.6,9.1-19.6,9.9c-6.4,0.7-12.6,3.2-18.9,4.9c-1.1,0.3-2.4,0.8-3.4,0.5
		c-13.9-3.6-28-6.6-41.5-11.5c-7.3-2.6-13.4-8.6-20.1-13.1c-3.5-2.4-7-4.7-10.6-7.1c-8.4-5.6-14.3-13.6-20.8-21
		c-2.8-3.2-7.2-4.9-10.4-7.8c-5.4-5-10.4-10.4-15.5-15.6c-0.8-0.8-1.8-1.6-2.3-2.6c-3.8-7.5-10.1-12.8-15.8-18.7
		c-1-1.1-2.4-2.2-2.6-3.5c-1.2-6.4-6.4-10.5-8.8-16.2c-1.9-4.5-3.2-9.2-5-13.7c-0.5-1.2-1.5-2.2-2.4-3.2c-1.6-1.9-4.5-3.5-4.8-5.5
		c-0.8-5.6-3.1-9.9-7.3-13.5c-5-4.3-5.5-10.5-6.7-16.3c-0.1-0.7,0.3-1.8,0.9-2.2c4.4-3,8.6-7.3,13.6-8.6c7.4-1.9,15.3-2.2,23.1-2.2
		c2.1,0,4.8,2.8,6.4,5c4.3,6,8.6,12.2,12.1,18.7c3.6,6.7,5.7,14.2,9.4,20.8C1101.7,395,1105.8,397.4,1107.7,399.2z"/>
	<path d="M171.5,235.4c-3.5,1.5-7,2.9-10.4,4.4c-1,0.4-2,1.2-3,1.3c-3.7,0.5-8.3,4.6-8.8,8.1c-0.6,3.9,2,6.8,6.6,7.6
		c1.1,0.2,2.1,0.8,4.2,1.6c-7,2.5-6.5,4.8-4.1,10.7c2.3,5.5,3.3,12.1,0.8,18.4c-0.3,0.9-0.3,1.9-0.2,2.9c0.2,2.4,1.5,5.1,0.7,7
		c-3.6,8.9-2,18.2-2.3,27.2c-0.6,14.7-0.2,29.5-0.3,44.2c-0.1,17.4-0.3,34.7-0.4,52.1c-0.1,13-0.2,25.9-0.2,38.9
		c0,17.1,0.2,34.3,0.1,51.4c0,2-0.9,4.1-1.6,6.8c0.1,0.1,1.1,1.4,1.2,2.6c0.2,2.9-0.3,5.8-0.3,8.8c0.1,16.3,0.6,32.5,0.3,48.8
		c-0.2,10.9-1.3,21.7-2.1,32.6c-0.1,2.1-0.8,4.2-0.7,6.2c0.3,5.6-5.2,7-7.8,10.4c-3.4,4.5-8.2,7.9-12.4,11.7c-2,1.8-4,3.4-6.9,1
		c-0.5-0.4-2.3,0.8-3.5,0.9c-2.8,0.2-6,1.1-8.3,0c-1.3-0.6-0.9-4.6-1.4-7.7c-8.9-3.6-11.6-9.9-9.2-22.9c0.7-3.7,0.9-7.5,1.5-11.3
		c0.4-2.7,1-5.4,1.7-8c2.5-8.5,0.6-17.2,1-25.7c0.3-5.3-1.4-10.8-0.4-15.8c2.2-10.9,0-21.8,1-32.7c0.7-7.3-0.4-14.8-0.4-22.3
		c0-7.2,0.3-14.5,0.5-21.7c0.2-10.4,0.5-20.8,0.6-31.2c0.1-8.7,0.1-17.4,0-26.2c-0.2-9-1-17.9-0.8-26.9c0.3-11.2,2.3-22.4,1.6-33.4
		c-0.3-5.3-0.3-10.7-0.5-16c-0.3-13.7-0.5-27.3-0.4-41c0-9.7,0.6-19.3,0.8-29c0-2.2-0.4-4.3-0.6-6.7c-6.8,2.1-14.5,2.9-20.1,6.8
		c-3.4,2.4-6.9,4.5-10.5,6.5c-4.9,2.7-10.1,4.9-14.9,7.8c-1.6,1-2.6,3.2-3.7,4.7c-2.4-4.4-5.3-4.2-13.3,0.8
		c-4.9-1.4-9.4-2.3-13.6-3.9c-2-0.8-3.7-2.8-5.1-4.6c-1.5-2.1-2.4-4.7-3.7-6.9c-1.7-3-4.9-5.9-5.1-8.9c-0.2-3.3,1.4-7.7,3.8-9.9
		c5.6-5,11.8-9.3,18.3-13.1c10.5-6,21.2-11.6,32.1-16.7c11.8-5.5,23.9-10.3,35.8-15.4c6.2-2.6,12.5-5.3,18.8-7.6
		c6.8-2.4,13.7-4.3,20.6-6.5c3.4-1.1,6.7-2.5,10.1-3.6c4.8-1.5,9.7-2.8,14.5-4.3c8.3-2.5,16.6-5.2,24.9-7.7c3.3-1,6.6-2,10-2.5
		c11-1.4,21.9-3.6,32.9-3.5c8.7,0,15.6,4.7,21.6,12c5.4,6.5,3.9,10.8-0.3,16c-1.8,2.3-1.3,3.5,0.7,5.7c1.9,2.1,3.2,6,2.6,8.7
		c-0.7,3.6-6.1,5.1-9.9,3.9c-1.1-0.4-2.6-1.2-3.3-0.7c-5.5,2.9-10.8-0.7-16.2-0.2c-2.3,0.2-4.5-0.6-5.7,2.3c-0.3,0.7-2.8,1-4.1,0.7
		c-11.6-2.8-21.1,2.6-31,7.2c-5.3,2.5-10.5,5.8-17.1,4.1c-1.2-0.3-2.8,1.2-4.3,1.8C171.9,235.5,171.7,235.5,171.5,235.4z"/>
	<path d="M4570.9,53c4.3,1.4,9.5,4,14.9,4.5c4,0.4,8-0.3,11.7,1.8c0.5,0.3,1.7,0.3,1.7,0.7c1.6,6.7,7.6,10.8,9.6,18
		c1.8,6.4,1.7,12.8,3.1,19.1c1.5,7.2,1.1,14.8,1.9,22.1c1.5,13.4,2.9,26.8,5,40.1c1.6,10.5,4,20.9,6.6,31.3
		c1.3,5.1,3.5,9.9,5.8,14.7c6.7,14.3,12.9,28.9,20.8,42.5c6,10.5,14.2,19.8,21.6,29.5c1.8,2.4,4,3.5,6.3,0.2
		c6-8.6,12.5-17,18.3-25.8c5.1-7.7,9.6-15.7,14-23.8c2.3-4.3,3.8-9.1,5.6-13.7c3.6-9.4,7.3-18.8,10.7-28.3
		c2.8-7.8,5.4-15.7,7.9-23.6c3.3-10.2,6.6-20.5,9.6-30.8c3.3-11.1,6.5-22.1,9.2-33.3c1.9-7.8,2.6-16,4.9-23.6
		c1.1-3.6,0.7-6.8,1.1-10.2c0.9-7.5,5.7-11.1,13.8-11.4c7.6-0.3,15.2-1.2,22.8-1.8c5.1-0.4,9.8,5.5,9.3,10.6
		c-0.5,5.7-0.1,11.5-0.5,17.3c-0.2,3.4-0.7,6.9-2,10c-2.9,7.1-0.1,14.6-1.9,21.5c-3.7,14.3-8.1,28.4-12.3,42.5
		c-4.7,15.8-9.3,31.6-14.3,47.3c-2.5,7.8-5.4,15.5-8.5,23.1c-6.1,15.1-11.7,30.5-19,45c-6.7,13.2-15,25.7-23.3,38
		c-5.3,7.7-11.7,14.9-18.4,21.4c-4.3,4.2-9.8,7.3-15.3,9.8c-2.3,1.1-5.9-0.9-9-1.3c-1.5-0.2-4.1-0.7-4.5-0.1c-3.1,5.4-6.5,1.9-8.9,0
		c-15-11.7-30-23.4-41.3-39.2c-5.4-7.6-11.4-14.7-16.5-22.4c-4.5-6.9-8.2-14.4-12-21.8c-3.8-7.4-7.7-14.9-10.8-22.6
		c-4.8-11.9-9.4-24-13.3-36.2c-3.5-10.9-6.7-22.1-8.7-33.4c-2-11.7-2.3-23.7-3.7-35.5c-0.5-4.5-2-8.8-2.7-13.2
		c-0.6-3.8-1-7.6-1.3-11.4c-0.1-1.4,0.2-2.9,0.4-4.3c0.3-1.9,1.2-4,0.8-5.8c-1.8-7.7-3.9-15.3-6.1-22.9c-1.3-4.4,0.4-7.4,4.8-8.1
		c2.9-0.5,6-0.4,8.7-1.5C4568.9,57.5,4569.6,55.1,4570.9,53z"/>
	<path d="M4078.1,82.5c-1.8,8.2-3.5,15.9-5.2,23.7c-0.2,0.9-1,2.3-0.6,2.8c3.6,4.7-0.7,8.1-1.9,11.9c-2.9,8.5-6.7,16.8-9.4,25.4
		c-3.7,11.8-6.6,23.8-9.9,35.7c-2.7,9.9-5.3,19.8-8.3,29.6c-2.5,8.3-6,16.2-8.2,24.6c-2.8,10.5-5.1,21.1-7.1,31.7
		c-2.2,11.9-4.2,23.8-5.7,35.8c-1.2,9.3-1.8,18.8-2.1,28.2c-0.2,6.5,5.7,10.6,13.8,13.3c8.2,2.7,16.4,0.7,24.4,2.5
		c7.6,1.7,15.1,3.8,22.7,5.7c1.3,0.3,2.7,0.3,4,0.3c4.3,0,9.3-1.5,12.8,0.1c9.2,4.1,18.3,4.1,27.8,2.1c0.5-0.1,1-0.1,1.4,0.1
		c3.4,1.4,6.2,2.7,10.4,0.9c3-1.3,7.5,1.5,11.5,2c1.9,0.3,4-0.2,6.2,0.1c2.6,0,5.3,0.2,7.9,0c7.1-0.6,14.2-1.6,21.4-1.9
		c8.6-0.5,17.2-0.4,25.8-0.7c4.1-0.2,8.2-1.2,12.3-1c5.1,0.2,9.9,2.1,15.2,1.3c2.6-0.4,5.3,2.6,5.4,6.6c0,2.4,1,5.1,2.3,7.3
		c3.4,5.7,1.8,11.7-4.2,14.3c-4.8,2.1-9.2,4.3-11.5,9.4c-2,4.4-6.8,4-10.4,4.5c-14.6,1.8-29.3,3.9-44,4.3
		c-20.2,0.5-40.4-0.2-60.5-1.1c-15.1-0.7-30.1-2.5-45.1-4.2c-9.4-1.1-18.8-3.3-28.2-4.6c-9.1-1.3-18.4-1.7-27.4-3.4
		c-6-1.1-12.2-3.1-17.5-6c-4.8-2.6-8.9-6.7-12.8-10.6c-1.6-1.6-2.1-4.4-3.3-6.5c-4.5-7.9-7.5-16.2-10-25.1
		c-2.8-10.4-3.6-20.5-3.2-30.9c0.2-4.5,0.2-9,2.4-13.5c1.6-3.3-0.4-8.2,0.5-12.1c1.3-5.7,2-11.5,3.8-17.1c1.6-5,4.8-10,3.4-16.3
		c-0.9-4.2,1-9.1,2.1-13.5c1.8-7,3.9-13.9,6.1-20.8c0.6-1.7,2.3-3.1,3.8-5c-4.7-5.6,0.9-10.6,1.8-16c1.1-6.9,3.9-13.4,6.1-20.1
		c3.9-12,7.8-24,11.7-36.1c0.3-0.8,0.4-1.6,0.4-2.4c0-4.1,0.3-7.6,2.7-11.6c3-4.8,3.5-11.1,5.5-16.6c3.1-8.8,6.2-17.6,10-26.2
		c1.5-3.5,4.4-6.2,9.3-6.1c4.2,0.1,9.2,0.4,11.4-4.9c0.3-0.7,2.1-1.7,2.4-1.5c4.8,3.6,10.4-1.9,15.1,1.2c1.8,1.2,3,3.3,4.3,5.2
		c1.4,2.1,2.4,4.4,3.8,6.4C4073.6,83.7,4075.3,83,4078.1,82.5z"/>
	<path d="M2674.8,198.4c-14.4,5.4-27.5,10.8-40.9,15c-5.3,1.7-10.1,3.5-14.9,6.6c-2.6,1.7-7.6-0.1-12-0.3c-0.3,0.8-0.8,2-1.1,3
		c-3-1.5-6.1-2.6-8.8-4.4c-2.7-1.8-5.2-4.1-7.2-6.7c-1.8-2.3-2.8-5.2-4.2-7.9c-3.2-5.8-0.7-14.7,3.7-19.7
		c9.2-10.3,21.9-13.3,33.9-17.9c12.4-4.8,25-9.3,37.5-13.7c6.2-2.2,12.7-3.6,19-5.8c7.1-2.5,14-5.6,21.1-8
		c7.2-2.4,14.6-4.1,21.9-6.3c4.3-1.3,8.4-3.4,12.7-4.5c10-2.5,20.2-4.7,30.3-6.9c6.8-1.5,13.6-3.2,20.5-4.2c5.7-0.9,11.5-1,17.3-1.4
		c2.8-0.2,5.7-0.2,8.5-0.3c3-0.2,5.2-0.4,7.1,3.4c1.5,3.2,6,4.8,9,7.3c1.5,1.3,2.6,3.1,3.6,4.8c1.5,2.6,2.6,5.5,4.2,8.9
		c-0.2,1.6-0.4,4.5-1.1,7.3c-0.5,1.9-1.3,4.5-2.7,5.4c-4.1,2.3-5,5.7-4.3,10.4c-3.2-1.4-5.9-2.5-8.9-3.8c-3.5,6.1-8.3,5.7-13.7,3.3
		c-0.7-0.3-1.9-0.7-2.4-0.4c-5.2,3.3-9.3-1.8-14.1-1.5c-2.3,6.3-8.3,3.7-12.9,4.6c-1.5,0.3-3.4-0.3-4.8,0.4
		c-8,3.8-17.3,4.5-24.2,11.1c-1.5,1.5-4.8,1.1-7.1,1.9c-4.3,1.5-8.7,2.9-12.7,5.1c-1.6,0.9-3,3.7-3,5.6c-0.1,7.4,0.9,14.8,0.6,22.2
		c-0.3,11.6-1.4,23.3-2,34.9c-0.4,7.4-0.2,14.8-0.7,22.2c-0.9,13.1-1.9,26.1-3.3,39.1c-0.3,3.4-2.1,6.6-3.2,9.8
		c-0.2,0.5-0.3,1-0.2,1.4c4.7,12.9,1.2,25.9,0.1,38.8c-1.2,15-3.7,29.9-5.5,44.8c-0.7,5.7-1.1,11.5-1.8,17.3
		c-1,8.5-2.1,16.9-3.2,25.3c-0.2,1.5,0.1,3-0.2,4.4c-0.6,2.4-1.5,4.8-2.2,7.2c-0.6,2.4-1.2,4.7-1.6,7.2c-0.8,5.9-1.4,11.8-2,17.3
		c-3.1,0-5.6-0.6-7.7,0.2c-1.7,0.7-2.7,3-4.5,5.1c-1.5-2.4-2.3-3.8-4.2-6.8c-2,2.1-3.4,3.6-5.5,5.8c-2.3-0.6-6.2-2.2-10.2-2.4
		c-8-0.4-7.7-6.7-9.4-11.8c-1.4-4.2-2.8-8.4-3.6-12.7c-0.6-3-0.4-6.1-0.6-9.2c-0.5-7.3-1.1-14.6-1.4-21.9c0-0.9,1.6-1.8,2.7-3.1
		c-1-1.4-2.2-3.1-3.8-5.1c2-0.7,3.6-1.3,5-1.8c0.9-3.7,2.1-7.3,2.7-10.9c1.9-13.3,3.6-26.5,5.5-39.8c0.9-6.4,2.5-12.7,3.1-19.2
		c0.6-6-0.1-12.2,0.3-18.2c0.7-11.4,1.3-22.7,2.8-34c1.1-8.5,1.7-16.9,1.8-25.4c0-4.7,1.6-9.4,2.4-14.2c0.2-0.9-0.2-1.9-0.2-2.9
		c0.7-11.9,1.7-23.8,2-35.7C2676.6,211.1,2675.5,205.2,2674.8,198.4z"/>
	<path d="M4947.3,95.3c-0.7-0.9-1.5-2-2.6-3.4c3.4-2.3,6.2-4.8,1.7-8.6c-0.5-0.4,0-2.4,0.4-3.6c0.7-2.5,2.1-4.9,2.5-7.4
		c1-6.6,1.4-13.4,2.5-20c0.5-3.2-1.6-6.7,2.4-9.7c4.3-3.2,13.8-5.2,18.8-2.3c0.8-0.9,1.5-1.9,2.3-2.9c1.3,0.6,2.5,1.1,3.6,1.6
		c0.9,0.4,2.1,1.5,2.5,1.2c5.1-3.2,7.4,0.7,10.3,3.6c1.7,1.7,4.1,2.8,5.5,4.6c1.1,1.5,1.8,3.9,1.6,5.8c-1.5,12.8-3.1,25.6-5,38.3
		c-1.6,10.4-3.9,20.8-5.4,31.2c-1.6,10.7-2.5,21.5-4.1,32.1c-2.4,15.8-5.1,31.6-7.6,47.5c-2.2,13.8-4.3,27.5-6.4,41.3
		c-2.3,14.8-4.7,29.6-6.9,44.4c-1.1,7.6-1.6,15.4-2.5,23c-1,8.4-2.3,16.8-3.5,25.3c0,0.2-0.1,0.4-0.1,0.5c2.2,5.5-0.7,11.2,0.2,17
		c1.9,0.3,3.5,0.6,5.1,0.9c0,0.2,0.1,0.5,0.1,0.7c-3.1,0.3-6.1,0.5-9.2,0.8c-5,1.9-3.1,6.7-3.8,10.7c-0.6,3.3-2,6.5-3.6,9.5
		c-0.3,0.6-2.8,0.3-4.2,0c-3.2-0.7-5.3-0.5-4.5,3.6c-6.1-1-12.7-1.3-18.6-3.4c-3.4-1.3-6.3-5.3-8.4-8.7c-3-4.9-4.9-10.4-7.3-15.6
		c-2.3-5-2.8-9.5,0.5-14.7c1.9-3,1.4-7.6,1.8-11.4c0.2-1.9,0.2-3.9,0.1-5.8c-0.1-2.8-0.2-5.6-0.3-8.3c0-0.8-0.5-1.9-0.2-2.4
		c5.4-6.8,2.3-15.4,4.7-22.8c1.2-3.6,2.4-7.1,3.2-10.8c1.2-4.9,2.2-9.9,3-14.9c1.3-7.7,2.4-15.3,3.4-23c0.5-3.7,0.2-7.6,0.9-11.3
		c0.4-2.6,1.8-5,2.4-6.6c0.2-4.1,0-7.6,0.6-10.9c2.1-13.1,4.5-26.1,6.8-39.1c1.1-6.4,1.3-13.2,3.7-19.2c3-7.7,4.4-15.3,4.9-23.5
		c0.6-9,3.3-17.8,5.4-26.6C4944.5,99.8,4946.1,97.8,4947.3,95.3z"/>
	<path d="M4395.5,419.1c-0.6-2.2-1.3-4.7-2.4-8.3c-1.7,1.2-3.9,3-6.2,4.3c-1.3,0.7-3,1.3-4.5,1.1c-8.1-1.3-13.3-6.1-15.7-13.9
		c-1.1-3.4-2.2-6.4-4.8-9.2c-4.1-4.5-1.8-10.3-1.2-15.7c1.1-9.1,2.3-18.2,3.1-27.3c0.9-9.4,1.6-18.9,2-28.3
		c0.3-5.9-0.5-11.9-0.3-17.9c0.5-13.6,1.5-27.2,1.9-40.8c0.2-5.6-1-11.3-1-16.9c0-6.4,0.5-12.8,0.8-19.3c0.5-8.3,2.7-17,1.1-24.9
		c-2-9.8,0.5-19.1,0.4-28.6c0-11.6,2.4-23.2,3.6-34.9c0.4-4.2,0.4-8.5,0.7-12.7c0.9-13.9,2-27.7,2.6-41.6c0.1-2.8-1.6-5.7-2.3-8.5
		c-0.7-2.7-0.4-4.3,2.7-6.2c8.2-5.1,17.6-4.1,26.4-5.9c5.6-1.1,12.4,3.5,13.3,7.8c1.2,6.1,2.7,12.2,2.9,18.4
		c0.3,6.5-1.1,13.1-1.2,19.7c-0.2,9.5,0.3,19.1,0.1,28.6c-0.2,8.2-0.8,16.5-1.4,24.7c-0.7,9.7-2.1,19.4-2.3,29.1
		c-0.2,8.7,0.7,17.4,1,26.1c0.2,8.6,0.5,17.2,0.3,25.8c-0.3,16.2-0.6,32.4-1.3,48.5c-0.2,6.1,1.4,12.4-1.9,18.4
		c-0.6,1.2,1.5,3.6,1.5,5.4c0,7.9-0.4,15.9-0.5,23.8c-0.1,4-0.4,8,0,11.9c0.2,2.2,2.4,4.5,2.2,6.5c-1,7.8-2.4,15.6-4,23.3
		c-0.9,4.3-2.6,8.5-3.6,12.8c-0.3,1.4,0.6,3.2,1.1,4.7c1.9,5.7,0.9,8.4-4,12C4401.7,413.4,4399.2,415.9,4395.5,419.1z"/>
</g>
</svg>
